<svg version="1.1" xmlns="http://www.w3.org/2000/svg" viewBox="0 0 149.97519286264185 171.3726761567246" width="149.97519286264185" height="171.3726761567246">
  <!-- svg-source:excalidraw -->
  
  <defs>
    <style class="style-fonts">
      @font-face {
        font-family: "Virgil";
        src: url("https://excalidraw.com/Virgil.woff2");
      }
      @font-face {
        font-family: "Cascadia";
        src: url("https://excalidraw.com/Cascadia.woff2");
      }
      @font-face {
        font-family: "Assistant";
        src: url("https://excalidraw.com/Assistant-Regular.woff2");
      }
    </style>
    
  </defs>
  <g stroke-linecap="round"><g transform="translate(121.87590530737998 121.6823201602665) rotate(0 -38.77863645947116 -22.170749529196712)" fill-rule="evenodd"><path d="M0 0 C-0.26 2.33, -0.27 9.38, -1.56 13.95 C-2.84 18.52, -4.66 23.77, -7.71 27.42 C-10.76 31.07, -14.86 33.88, -19.86 35.87 C-24.85 37.87, -31.56 38.99, -37.68 39.4 C-43.79 39.8, -50.97 39.76, -56.55 38.3 C-62.12 36.85, -67.5 35.15, -71.13 30.68 C-74.75 26.2, -77.17 23.54, -78.3 11.47 C-79.43 -0.61, -79.51 -28.32, -77.92 -41.75 C-76.34 -55.19, -70.68 -63.99, -68.8 -69.15 C-66.93 -74.32, -67.06 -72.09, -66.69 -72.74 C-66.32 -73.4, -66.29 -72.49, -66.57 -73.08 C-66.86 -73.67, -67.94 -75.23, -68.38 -76.29 C-68.82 -77.35, -69.25 -78.47, -69.21 -79.47 C-69.17 -80.46, -68.72 -81.55, -68.15 -82.26 C-67.59 -82.97, -66.6 -83.48, -65.82 -83.73 C-65.03 -83.97, -64.14 -83.94, -63.42 -83.74 C-62.7 -83.54, -62.15 -83.12, -61.47 -82.51 C-60.8 -81.91, -60.03 -80.77, -59.36 -80.1 C-58.7 -79.43, -58.06 -78.63, -57.49 -78.5 C-56.92 -78.37, -59.37 -78.65, -55.93 -79.31 C-52.48 -79.97, -42.76 -82.33, -36.8 -82.47 C-30.85 -82.61, -24.14 -80.94, -20.2 -80.15 C-16.27 -79.36, -14.5 -78.14, -13.2 -77.72 C-11.89 -77.3, -12.92 -77.17, -12.39 -77.62 C-11.86 -78.08, -10.75 -79.71, -10.03 -80.44 C-9.3 -81.17, -8.73 -81.64, -8.05 -82 C-7.36 -82.37, -6.72 -82.67, -5.95 -82.65 C-5.17 -82.63, -4.05 -82.33, -3.4 -81.88 C-2.75 -81.42, -2.24 -80.74, -2.06 -79.91 C-1.89 -79.07, -1.81 -78.16, -2.33 -76.85 C-2.84 -75.53, -4.79 -72.99, -5.16 -72.03 C-5.53 -71.06, -5.06 -72.35, -4.54 -71.07 C-4.02 -69.8, -2.9 -69.31, -2.02 -64.38 C-1.14 -59.45, 0.41 -52.22, 0.74 -41.49 C1.08 -30.76, 0.12 -6.92, 0 0" stroke="none" stroke-width="0" fill="#5bc9e2" fill-rule="evenodd"></path><path d="M0 0 C-0.26 2.33, -0.27 9.38, -1.56 13.95 C-2.84 18.52, -4.66 23.77, -7.71 27.42 C-10.76 31.07, -14.86 33.88, -19.86 35.87 C-24.85 37.87, -31.56 38.99, -37.68 39.4 C-43.79 39.8, -50.97 39.76, -56.55 38.3 C-62.12 36.85, -67.5 35.15, -71.13 30.68 C-74.75 26.2, -77.17 23.54, -78.3 11.47 C-79.43 -0.61, -79.51 -28.32, -77.92 -41.75 C-76.34 -55.19, -70.68 -63.99, -68.8 -69.15 C-66.93 -74.32, -67.06 -72.09, -66.69 -72.74 C-66.32 -73.4, -66.29 -72.49, -66.57 -73.08 C-66.86 -73.67, -67.94 -75.23, -68.38 -76.29 C-68.82 -77.35, -69.25 -78.47, -69.21 -79.47 C-69.17 -80.46, -68.72 -81.55, -68.15 -82.26 C-67.59 -82.97, -66.6 -83.48, -65.82 -83.73 C-65.03 -83.97, -64.14 -83.94, -63.42 -83.74 C-62.7 -83.54, -62.15 -83.12, -61.47 -82.51 C-60.8 -81.91, -60.03 -80.77, -59.36 -80.1 C-58.7 -79.43, -58.06 -78.63, -57.49 -78.5 C-56.92 -78.37, -59.37 -78.65, -55.93 -79.31 C-52.48 -79.97, -42.76 -82.33, -36.8 -82.47 C-30.85 -82.61, -24.14 -80.94, -20.2 -80.15 C-16.27 -79.36, -14.5 -78.14, -13.2 -77.72 C-11.89 -77.3, -12.92 -77.17, -12.39 -77.62 C-11.86 -78.08, -10.75 -79.71, -10.03 -80.44 C-9.3 -81.17, -8.73 -81.64, -8.05 -82 C-7.36 -82.37, -6.72 -82.67, -5.95 -82.65 C-5.17 -82.63, -4.05 -82.33, -3.4 -81.88 C-2.75 -81.42, -2.24 -80.74, -2.06 -79.91 C-1.89 -79.07, -1.81 -78.16, -2.33 -76.85 C-2.84 -75.53, -4.79 -72.99, -5.16 -72.03 C-5.53 -71.06, -5.06 -72.35, -4.54 -71.07 C-4.02 -69.8, -2.9 -69.31, -2.02 -64.38 C-1.14 -59.45, 0.41 -52.22, 0.74 -41.49 C1.08 -30.76, 0.12 -6.92, 0 0 M0 0 C-0.26 2.33, -0.27 9.38, -1.56 13.95 C-2.84 18.52, -4.66 23.77, -7.71 27.42 C-10.76 31.07, -14.86 33.88, -19.86 35.87 C-24.85 37.87, -31.56 38.99, -37.68 39.4 C-43.79 39.8, -50.97 39.76, -56.55 38.3 C-62.12 36.85, -67.5 35.15, -71.13 30.68 C-74.75 26.2, -77.17 23.54, -78.3 11.47 C-79.43 -0.61, -79.51 -28.32, -77.92 -41.75 C-76.34 -55.19, -70.68 -63.99, -68.8 -69.15 C-66.93 -74.32, -67.06 -72.09, -66.69 -72.74 C-66.32 -73.4, -66.29 -72.49, -66.57 -73.08 C-66.86 -73.67, -67.94 -75.23, -68.38 -76.29 C-68.82 -77.35, -69.25 -78.47, -69.21 -79.47 C-69.17 -80.46, -68.72 -81.55, -68.15 -82.26 C-67.59 -82.97, -66.6 -83.48, -65.82 -83.73 C-65.03 -83.97, -64.14 -83.94, -63.42 -83.74 C-62.7 -83.54, -62.15 -83.12, -61.47 -82.51 C-60.8 -81.91, -60.03 -80.77, -59.36 -80.1 C-58.7 -79.43, -58.06 -78.63, -57.49 -78.5 C-56.92 -78.37, -59.37 -78.65, -55.93 -79.31 C-52.48 -79.97, -42.76 -82.33, -36.8 -82.47 C-30.85 -82.61, -24.14 -80.94, -20.2 -80.15 C-16.27 -79.36, -14.5 -78.14, -13.2 -77.72 C-11.89 -77.3, -12.92 -77.17, -12.39 -77.62 C-11.86 -78.08, -10.75 -79.71, -10.03 -80.44 C-9.3 -81.17, -8.73 -81.64, -8.05 -82 C-7.36 -82.37, -6.72 -82.67, -5.95 -82.65 C-5.17 -82.63, -4.05 -82.33, -3.4 -81.88 C-2.75 -81.42, -2.24 -80.74, -2.06 -79.91 C-1.89 -79.07, -1.81 -78.16, -2.33 -76.85 C-2.84 -75.53, -4.79 -72.99, -5.16 -72.03 C-5.53 -71.06, -5.06 -72.35, -4.54 -71.07 C-4.02 -69.8, -2.9 -69.31, -2.02 -64.38 C-1.14 -59.45, 0.41 -52.22, 0.74 -41.49 C1.08 -30.76, 0.12 -6.92, 0 0" stroke="#000000" stroke-width="1" fill="none"></path></g></g><mask></mask><g stroke-linecap="round"><g transform="translate(121.87590530737998 121.75539654669848) rotate(0 -38.77863645947116 -21.624178807498055)"><path d="M0 0 C-0.26 2.33, -0.27 9.38, -1.56 13.95 C-2.84 18.52, -4.66 23.77, -7.71 27.42 C-10.76 31.07, -14.86 33.88, -19.86 35.87 C-24.85 37.87, -31.56 38.99, -37.68 39.4 C-43.79 39.8, -50.97 39.76, -56.55 38.3 C-62.12 36.85, -67.5 35.15, -71.13 30.68 C-74.75 26.2, -77.17 23.54, -78.3 11.47 C-79.43 -0.61, -79.51 -28.32, -77.92 -41.75 C-76.34 -55.19, -72.41 -62.92, -68.8 -69.15 C-65.2 -75.39, -61.63 -76.92, -56.3 -79.14 C-50.97 -81.36, -42.82 -82.3, -36.8 -82.47 C-30.79 -82.64, -24.14 -80.94, -20.2 -80.15 C-16.27 -79.36, -14.5 -78.14, -13.2 -77.72 C-11.89 -77.3, -12.92 -77.17, -12.39 -77.62 C-11.86 -78.08, -10.75 -79.71, -10.03 -80.44 C-9.3 -81.17, -8.73 -81.64, -8.05 -82 C-7.36 -82.37, -6.72 -82.67, -5.95 -82.65 C-5.17 -82.63, -4.05 -82.33, -3.4 -81.88 C-2.75 -81.42, -2.24 -80.74, -2.06 -79.91 C-1.89 -79.07, -1.81 -78.16, -2.33 -76.85 C-2.84 -75.53, -4.79 -72.99, -5.16 -72.03 C-5.53 -71.06, -5.06 -72.35, -4.54 -71.07 C-4.02 -69.8, -2.9 -69.31, -2.02 -64.38 C-1.14 -59.45, 0.41 -52.22, 0.74 -41.49 C1.08 -30.76, 0.12 -6.92, 0 0 M0 0 C-0.26 2.33, -0.27 9.38, -1.56 13.95 C-2.84 18.52, -4.66 23.77, -7.71 27.42 C-10.76 31.07, -14.86 33.88, -19.86 35.87 C-24.85 37.87, -31.56 38.99, -37.68 39.4 C-43.79 39.8, -50.97 39.76, -56.55 38.3 C-62.12 36.85, -67.5 35.15, -71.13 30.68 C-74.75 26.2, -77.17 23.54, -78.3 11.47 C-79.43 -0.61, -79.51 -28.32, -77.92 -41.75 C-76.34 -55.19, -72.41 -62.92, -68.8 -69.15 C-65.2 -75.39, -61.63 -76.92, -56.3 -79.14 C-50.97 -81.36, -42.82 -82.3, -36.8 -82.47 C-30.79 -82.64, -24.14 -80.94, -20.2 -80.15 C-16.27 -79.36, -14.5 -78.14, -13.2 -77.72 C-11.89 -77.3, -12.92 -77.17, -12.39 -77.62 C-11.86 -78.08, -10.75 -79.71, -10.03 -80.44 C-9.3 -81.17, -8.73 -81.64, -8.05 -82 C-7.36 -82.37, -6.72 -82.67, -5.95 -82.65 C-5.17 -82.63, -4.05 -82.33, -3.4 -81.88 C-2.75 -81.42, -2.24 -80.74, -2.06 -79.91 C-1.89 -79.07, -1.81 -78.16, -2.33 -76.85 C-2.84 -75.53, -4.79 -72.99, -5.16 -72.03 C-5.53 -71.06, -5.06 -72.35, -4.54 -71.07 C-4.02 -69.8, -2.9 -69.31, -2.02 -64.38 C-1.14 -59.45, 0.41 -52.22, 0.74 -41.49 C1.08 -30.76, 0.12 -6.92, 0 0" stroke="#000000" stroke-width="1" fill="none"></path></g></g><mask></mask><g stroke-linecap="round"><g transform="translate(106.51931608221935 43.18991113589482) rotate(0 5.611624722879867 3.8612096717063196)"><path d="M0 0 C0.9 0.48, 3.72 1.82, 5.41 2.88 C7.09 3.95, 9.12 5.58, 10.09 6.38 C11.06 7.19, 11.03 7.5, 11.22 7.72 M0 0 C0.9 0.48, 3.72 1.82, 5.41 2.88 C7.09 3.95, 9.12 5.58, 10.09 6.38 C11.06 7.19, 11.03 7.5, 11.22 7.72" stroke="#000000" stroke-width="1" fill="none"></path></g></g><mask></mask><g stroke-linecap="round"><g transform="translate(113.19959734771487 46.6911001659949) rotate(0 0.8621769528061236 -2.194632243506504)" fill-rule="evenodd"><path d="M0 0 C0.16 -0.34, 0.65 -1.31, 0.94 -2.04 C1.23 -2.77, 1.59 -4, 1.72 -4.39" stroke="none" stroke-width="0" fill="#ffffff" fill-rule="evenodd"></path><path d="M0 0 C0.16 -0.34, 0.65 -1.31, 0.94 -2.04 C1.23 -2.77, 1.59 -4, 1.72 -4.39 M0 0 C0.16 -0.34, 0.65 -1.31, 0.94 -2.04 C1.23 -2.77, 1.59 -4, 1.72 -4.39" stroke="#000000" stroke-width="1" fill="none"></path></g></g><mask></mask><g stroke-linecap="round"><g transform="translate(117.2203746661612 44.5082523396718) rotate(0 -2.021893267675182 0.9953936087016473)" fill-rule="evenodd"><path d="M0 0 C-0.33 0.08, -1.32 0.17, -1.99 0.5 C-2.66 0.83, -3.7 1.74, -4.04 1.99" stroke="none" stroke-width="0" fill="#ffffff" fill-rule="evenodd"></path><path d="M0 0 C-0.33 0.08, -1.32 0.17, -1.99 0.5 C-2.66 0.83, -3.7 1.74, -4.04 1.99 M0 0 C-0.33 0.08, -1.32 0.17, -1.99 0.5 C-2.66 0.83, -3.7 1.74, -4.04 1.99" stroke="#000000" stroke-width="1" fill="none"></path></g></g><mask></mask><g stroke-opacity="0.5" fill-opacity="0.5" stroke-linecap="round" transform="translate(53.85420799735596 112.04865710758827) rotate(0 27.59868279964752 22.437197162569646)"><path d="M24.09 1.91 C29.44 1.05, 36.69 -0.02, 41.57 2.22 C46.46 4.45, 51.76 10.9, 53.41 15.3 C55.07 19.69, 53.49 23.93, 51.51 28.58 C49.53 33.24, 46.51 40.71, 41.52 43.22 C36.54 45.73, 27.77 44.8, 21.59 43.64 C15.4 42.48, 8.01 40.17, 4.42 36.25 C0.82 32.34, -0.08 24.6, 0.02 20.15 C0.11 15.7, -3.72 10.92, 4.98 9.57 C13.69 8.22, 45.35 7.82, 52.24 12.07 C59.13 16.31, 46.99 34.94, 46.34 35.02 M9.8 6.59 C13.73 3.66, 19.45 2.74, 25.25 2.77 C31.04 2.81, 39.2 4.1, 44.56 6.8 C49.93 9.5, 56.34 14.78, 57.43 18.98 C58.52 23.18, 54.56 27.81, 51.09 32 C47.63 36.18, 42.57 41.84, 36.65 44.1 C30.73 46.36, 21.54 47.73, 15.57 45.56 C9.59 43.39, 3.74 35.52, 0.8 31.08 C-2.15 26.65, -3.34 23.29, -2.12 18.96 C-0.89 14.63, 6.49 6.86, 8.14 5.1 C9.8 3.33, 7.5 8.52, 7.79 8.37" stroke="none" stroke-width="0" fill="#ffffff"></path><path d="M12.39 2.33 C16.77 -0.07, 24.47 -1.41, 30.75 -0.12 C37.03 1.17, 45.69 6.42, 50.06 10.08 C54.43 13.75, 57.31 17.71, 56.98 21.89 C56.64 26.07, 51.88 31.14, 48.06 35.17 C44.23 39.19, 39.52 44.86, 34.02 46.03 C28.53 47.21, 20.73 44.74, 15.11 42.23 C9.49 39.71, 2.81 35.58, 0.3 30.94 C-2.21 26.31, -3.88 19.77, 0.07 14.42 C4.02 9.08, 18.17 1.06, 24.02 -1.12 C29.86 -3.3, 34.96 0.84, 35.15 1.34 M9.35 5.52 C11.99 2.75, 15.09 3.78, 20.68 3.2 C26.27 2.62, 37.64 0.39, 42.88 2.06 C48.13 3.72, 50.06 8.63, 52.14 13.21 C54.23 17.79, 57.54 24.33, 55.38 29.52 C53.22 34.7, 44.89 41.9, 39.19 44.34 C33.49 46.77, 26.78 44.98, 21.17 44.12 C15.57 43.27, 9.02 42.62, 5.56 39.21 C2.11 35.8, -0.04 28.89, 0.44 23.65 C0.92 18.4, 7.39 10.66, 8.43 7.75 C9.46 4.84, 6.89 5.56, 6.66 6.19" stroke="#000000" stroke-width="1" fill="none"></path></g><g stroke-linecap="round"><g transform="translate(56.71465466081577 46.322715693098644) rotate(294.1768782491122 0.47027833789422857 -2.2120838351709438)" fill-rule="evenodd"><path d="M0 0 C0.16 -0.34, 0.79 -1.3, 0.94 -2.04 C1.09 -2.78, 0.9 -4.03, 0.89 -4.42" stroke="none" stroke-width="0" fill="#ffffff" fill-rule="evenodd"></path><path d="M0 0 C0.16 -0.34, 0.79 -1.3, 0.94 -2.04 C1.09 -2.78, 0.9 -4.03, 0.89 -4.42 M0 0 C0.16 -0.34, 0.79 -1.3, 0.94 -2.04 C1.09 -2.78, 0.9 -4.03, 0.89 -4.42" stroke="#000000" stroke-width="1" fill="none"></path></g></g><mask></mask><g stroke-linecap="round"><g transform="translate(59.764245106863086 42.00519089130779) rotate(294.1768782491122 -1.5639416644995663 1.405722466051202)" fill-rule="evenodd"><path d="M0 0 C-0.18 0.22, -0.55 0.85, -1.07 1.32 C-1.6 1.79, -2.79 2.56, -3.13 2.81" stroke="none" stroke-width="0" fill="#ffffff" fill-rule="evenodd"></path><path d="M0 0 C-0.18 0.22, -0.55 0.85, -1.07 1.32 C-1.6 1.79, -2.79 2.56, -3.13 2.81 M0 0 C-0.18 0.22, -0.55 0.85, -1.07 1.32 C-1.6 1.79, -2.79 2.56, -3.13 2.81" stroke="#000000" stroke-width="1" fill="none"></path></g></g><mask></mask><g stroke-linecap="round" transform="translate(92.5970873610006 51.88921246102694) rotate(0 16.474086468318035 16.63639273894188)"><path d="M13.9 -0.35 C17.24 -0.96, 22.49 0.93, 25.51 2.9 C28.53 4.87, 31.07 8.12, 32.03 11.46 C32.99 14.81, 32.59 19.72, 31.26 22.97 C29.93 26.22, 27.2 29.23, 24.06 30.95 C20.91 32.68, 15.84 34.03, 12.41 33.35 C8.99 32.67, 5.68 29.87, 3.53 26.89 C1.38 23.91, -0.57 19.07, -0.47 15.48 C-0.37 11.89, 1.58 7.99, 4.12 5.38 C6.65 2.76, 12.75 0.65, 14.75 -0.2 C16.74 -1.05, 15.99 0.05, 16.11 0.3 M20.89 0.49 C24.24 0.92, 27.61 3.34, 29.61 6.21 C31.61 9.08, 33.18 13.97, 32.9 17.69 C32.61 21.42, 30.43 26.08, 27.9 28.56 C25.37 31.04, 21.25 32.21, 17.73 32.57 C14.21 32.93, 9.72 32.57, 6.8 30.72 C3.88 28.86, 1.24 24.76, 0.21 21.44 C-0.81 18.12, -0.72 14.2, 0.67 10.81 C2.06 7.42, 5.35 2.8, 8.57 1.12 C11.78 -0.57, 18 0.76, 19.94 0.69 C21.89 0.62, 20.15 0.37, 20.26 0.71" stroke="none" stroke-width="0" fill="#ffffff"></path><path d="M15.93 -0.13 C19.19 -0.7, 23.31 0.62, 26.14 2.83 C28.97 5.05, 32.03 9.59, 32.94 13.14 C33.84 16.7, 33.27 21.02, 31.56 24.18 C29.85 27.35, 26.06 30.74, 22.69 32.13 C19.33 33.52, 14.67 33.63, 11.37 32.52 C8.06 31.41, 4.69 28.4, 2.89 25.45 C1.09 22.51, 0.15 18.34, 0.58 14.83 C1.01 11.32, 3.03 6.81, 5.5 4.4 C7.96 1.99, 13.67 0.96, 15.37 0.36 C17.07 -0.23, 15.67 0.67, 15.68 0.83 M20 0.1 C23.32 0.71, 28.12 3.6, 30.17 6.63 C32.23 9.67, 32.7 14.74, 32.33 18.3 C31.96 21.86, 30.34 25.42, 27.97 27.99 C25.59 30.56, 21.49 33.27, 18.08 33.73 C14.66 34.2, 10.29 32.85, 7.48 30.77 C4.66 28.69, 2.21 24.81, 1.19 21.26 C0.17 17.7, 0.08 12.61, 1.34 9.44 C2.6 6.27, 5.49 3.63, 8.77 2.23 C12.06 0.83, 19.14 1.24, 21.03 1.03 C22.93 0.83, 20.43 0.79, 20.14 1.01" stroke="#000000" stroke-width="1" fill="none"></path></g><g stroke-linecap="round" transform="translate(42.769062279487 52.01656327340237) rotate(0 16.474086468318035 16.63639273894188)"><path d="M16.81 0.28 C20.22 0.15, 24.46 1.54, 27.04 3.81 C29.62 6.07, 31.71 10.39, 32.31 13.87 C32.91 17.34, 32.46 21.5, 30.65 24.66 C28.85 27.82, 24.78 31.53, 21.48 32.81 C18.17 34.09, 14.12 33.76, 10.82 32.36 C7.51 30.96, 3.43 27.53, 1.63 24.4 C-0.16 21.27, -0.62 17.05, 0.05 13.57 C0.72 10.09, 2.78 5.79, 5.68 3.52 C8.58 1.25, 15.39 0.56, 17.42 -0.03 C19.46 -0.63, 17.85 -0.33, 17.87 -0.07 M18.31 -0.36 C21.56 -0.16, 26.09 2.58, 28.42 5.34 C30.76 8.09, 32.25 12.75, 32.34 16.19 C32.44 19.63, 31.12 23.17, 29.01 25.97 C26.89 28.77, 23.04 32.06, 19.63 32.99 C16.23 33.91, 11.76 33.01, 8.6 31.51 C5.44 30, 2.09 27.35, 0.69 23.97 C-0.71 20.58, -0.87 14.7, 0.2 11.21 C1.28 7.71, 4.07 4.85, 7.12 2.99 C10.16 1.14, 16.48 0.37, 18.47 0.06 C20.46 -0.25, 19.11 0.92, 19.08 1.16" stroke="none" stroke-width="0" fill="#ffffff"></path><path d="M20.39 0.07 C23.69 0.79, 28.14 4.31, 30.29 7.29 C32.43 10.28, 33.65 14.45, 33.26 17.98 C32.86 21.51, 30.53 25.96, 27.94 28.48 C25.35 31.01, 21.14 32.87, 17.71 33.13 C14.28 33.39, 10.13 32.02, 7.36 30.04 C4.59 28.06, 2.01 24.64, 1.09 21.25 C0.16 17.85, 0.5 12.85, 1.8 9.64 C3.1 6.44, 5.71 3.4, 8.88 2 C12.06 0.6, 18.73 1.4, 20.84 1.23 C22.94 1.05, 21.42 0.74, 21.5 0.96 M15.7 -0.07 C18.99 -0.37, 22.8 1.68, 25.51 3.77 C28.23 5.85, 31.07 8.99, 32 12.43 C32.92 15.88, 32.5 21.16, 31.06 24.43 C29.62 27.7, 26.44 30.72, 23.35 32.08 C20.26 33.43, 15.94 33.66, 12.52 32.56 C9.1 31.45, 4.96 28.3, 2.82 25.45 C0.69 22.6, -0.75 18.82, -0.28 15.46 C0.2 12.1, 3.11 7.82, 5.68 5.29 C8.25 2.76, 13.65 1.04, 15.14 0.27 C16.63 -0.51, 14.46 0.43, 14.61 0.65" stroke="#000000" stroke-width="1" fill="none"></path></g><g stroke-linecap="round"><g stroke-opacity="0.1" fill-opacity="0.1" transform="translate(116.26697568138206 83.35674453012808) rotate(0 -11.6397031229954 -14.28693539356044)" fill-rule="evenodd"><path d="M0 0 C-0.51 0.06, -2.03 0.36, -3.05 0.36 C-4.07 0.36, -4.95 0.24, -6.12 0.02 C-7.29 -0.2, -8.79 -0.49, -10.07 -0.96 C-11.34 -1.42, -12.67 -1.95, -13.77 -2.78 C-14.88 -3.61, -15.72 -4.6, -16.68 -5.95 C-17.64 -7.29, -19.09 -8.92, -19.54 -10.86 C-19.98 -12.79, -19.83 -15.31, -19.34 -17.57 C-18.85 -19.83, -18.07 -22.46, -16.58 -24.43 C-15.1 -26.4, -12.34 -28.25, -10.44 -29.39 C-8.54 -30.52, -4.54 -31.17, -5.18 -31.23 C-5.83 -31.29, -11.9 -30.77, -14.31 -29.74 C-16.72 -28.71, -18.34 -26.5, -19.67 -25.04 C-20.99 -23.58, -21.6 -22.56, -22.26 -20.98 C-22.93 -19.4, -23.36 -17.41, -23.66 -15.55 C-23.96 -13.69, -24.17 -11.45, -24.06 -9.81 C-23.95 -8.17, -23.49 -6.86, -23 -5.69 C-22.52 -4.53, -22.01 -3.77, -21.13 -2.82 C-20.25 -1.86, -19.15 -0.77, -17.75 0.05 C-16.35 0.88, -14.6 1.72, -12.72 2.15 C-10.85 2.59, -8.75 3, -6.5 2.65 C-4.25 2.31, -0.43 0.5, 0.78 0.07" stroke="none" stroke-width="0" fill="#000000" fill-rule="evenodd"></path><path d="M0 0 C-0.51 0.06, -2.03 0.36, -3.05 0.36 C-4.07 0.36, -4.95 0.24, -6.12 0.02 C-7.29 -0.2, -8.79 -0.49, -10.07 -0.96 C-11.34 -1.42, -12.67 -1.95, -13.77 -2.78 C-14.88 -3.61, -15.72 -4.6, -16.68 -5.95 C-17.64 -7.29, -19.09 -8.92, -19.54 -10.86 C-19.98 -12.79, -19.83 -15.31, -19.34 -17.57 C-18.85 -19.83, -18.07 -22.46, -16.58 -24.43 C-15.1 -26.4, -12.34 -28.25, -10.44 -29.39 C-8.54 -30.52, -4.54 -31.17, -5.18 -31.23 C-5.83 -31.29, -11.9 -30.77, -14.31 -29.74 C-16.72 -28.71, -18.34 -26.5, -19.67 -25.04 C-20.99 -23.58, -21.6 -22.56, -22.26 -20.98 C-22.93 -19.4, -23.36 -17.41, -23.66 -15.55 C-23.96 -13.69, -24.17 -11.45, -24.06 -9.81 C-23.95 -8.17, -23.49 -6.86, -23 -5.69 C-22.52 -4.53, -22.01 -3.77, -21.13 -2.82 C-20.25 -1.86, -19.15 -0.77, -17.75 0.05 C-16.35 0.88, -14.6 1.72, -12.72 2.15 C-10.85 2.59, -8.75 3, -6.5 2.65 C-4.25 2.31, -0.43 0.5, 0.78 0.07 M0 0 C-0.51 0.06, -2.03 0.36, -3.05 0.36 C-4.07 0.36, -4.95 0.24, -6.12 0.02 C-7.29 -0.2, -8.79 -0.49, -10.07 -0.96 C-11.34 -1.42, -12.67 -1.95, -13.77 -2.78 C-14.88 -3.61, -15.72 -4.6, -16.68 -5.95 C-17.64 -7.29, -19.09 -8.92, -19.54 -10.86 C-19.98 -12.79, -19.83 -15.31, -19.34 -17.57 C-18.85 -19.83, -18.07 -22.46, -16.58 -24.43 C-15.1 -26.4, -12.34 -28.25, -10.44 -29.39 C-8.54 -30.52, -4.54 -31.17, -5.18 -31.23 C-5.83 -31.29, -11.9 -30.77, -14.31 -29.74 C-16.72 -28.71, -18.34 -26.5, -19.67 -25.04 C-20.99 -23.58, -21.6 -22.56, -22.26 -20.98 C-22.93 -19.4, -23.36 -17.41, -23.66 -15.55 C-23.96 -13.69, -24.17 -11.45, -24.06 -9.81 C-23.95 -8.17, -23.49 -6.86, -23 -5.69 C-22.52 -4.53, -22.01 -3.77, -21.13 -2.82 C-20.25 -1.86, -19.15 -0.77, -17.75 0.05 C-16.35 0.88, -14.6 1.72, -12.72 2.15 C-10.85 2.59, -8.75 3, -6.5 2.65 C-4.25 2.31, -0.43 0.5, 0.78 0.07" stroke="#000000" stroke-width="1" fill="none"></path></g></g><mask></mask><g stroke-linecap="round"><g stroke-opacity="0.1" fill-opacity="0.1" transform="translate(61.032643603971906 84.84201769873027) rotate(0 -8.29682331575583 -16.24635635052269)" fill-rule="evenodd"><path d="M0 0 C-1.16 -0.68, -4.89 -2.31, -6.94 -4.06 C-8.98 -5.81, -11.19 -8.01, -12.27 -10.5 C-13.36 -12.99, -13.7 -16.43, -13.43 -18.99 C-13.16 -21.55, -12.16 -23.89, -10.67 -25.86 C-9.19 -27.83, -6.43 -29.68, -4.53 -30.81 C-2.63 -31.94, 1.38 -32.59, 0.73 -32.65 C0.09 -32.71, -5.98 -32.2, -8.4 -31.17 C-10.81 -30.14, -12.43 -27.92, -13.75 -26.46 C-15.08 -25, -15.76 -23.97, -16.35 -22.4 C-16.95 -20.83, -17.3 -18.97, -17.32 -17.05 C-17.35 -15.13, -17.05 -12.8, -16.51 -10.88 C-15.97 -8.96, -15.11 -6.93, -14.08 -5.52 C-13.05 -4.12, -12 -3.39, -10.35 -2.44 C-8.7 -1.49, -5.9 -0.25, -4.18 0.16 C-2.45 0.56, -0.7 0.03, 0 0" stroke="none" stroke-width="0" fill="#000000" fill-rule="evenodd"></path><path d="M0 0 C-1.16 -0.68, -4.89 -2.31, -6.94 -4.06 C-8.98 -5.81, -11.19 -8.01, -12.27 -10.5 C-13.36 -12.99, -13.7 -16.43, -13.43 -18.99 C-13.16 -21.55, -12.16 -23.89, -10.67 -25.86 C-9.19 -27.83, -6.43 -29.68, -4.53 -30.81 C-2.63 -31.94, 1.38 -32.59, 0.73 -32.65 C0.09 -32.71, -5.98 -32.2, -8.4 -31.17 C-10.81 -30.14, -12.43 -27.92, -13.75 -26.46 C-15.08 -25, -15.76 -23.97, -16.35 -22.4 C-16.95 -20.83, -17.3 -18.97, -17.32 -17.05 C-17.35 -15.13, -17.05 -12.8, -16.51 -10.88 C-15.97 -8.96, -15.11 -6.93, -14.08 -5.52 C-13.05 -4.12, -12 -3.39, -10.35 -2.44 C-8.7 -1.49, -5.9 -0.25, -4.18 0.16 C-2.45 0.56, -0.7 0.03, 0 0 M0 0 C-1.16 -0.68, -4.89 -2.31, -6.94 -4.06 C-8.98 -5.81, -11.19 -8.01, -12.27 -10.5 C-13.36 -12.99, -13.7 -16.43, -13.43 -18.99 C-13.16 -21.55, -12.16 -23.89, -10.67 -25.86 C-9.19 -27.83, -6.43 -29.68, -4.53 -30.81 C-2.63 -31.94, 1.38 -32.59, 0.73 -32.65 C0.09 -32.71, -5.98 -32.2, -8.4 -31.17 C-10.81 -30.14, -12.43 -27.92, -13.75 -26.46 C-15.08 -25, -15.76 -23.97, -16.35 -22.4 C-16.95 -20.83, -17.3 -18.97, -17.32 -17.05 C-17.35 -15.13, -17.05 -12.8, -16.51 -10.88 C-15.97 -8.96, -15.11 -6.93, -14.08 -5.52 C-13.05 -4.12, -12 -3.39, -10.35 -2.44 C-8.7 -1.49, -5.9 -0.25, -4.18 0.16 C-2.45 0.56, -0.7 0.03, 0 0" stroke="#000000" stroke-width="1" fill="none"></path></g></g><mask></mask><g stroke-linecap="round" transform="translate(42.896413091862314 51.88921246102694) rotate(0 16.474086468318035 16.63639273894188)"><path d="M19.18 0.52 C22.38 0.9, 26.47 3.36, 28.8 6.02 C31.12 8.68, 33 12.88, 33.11 16.47 C33.22 20.06, 31.72 24.83, 29.45 27.57 C27.18 30.3, 23.14 32.27, 19.51 32.9 C15.87 33.52, 10.82 33.01, 7.65 31.3 C4.47 29.6, 1.65 26.13, 0.48 22.66 C-0.69 19.18, -0.78 13.82, 0.62 10.45 C2.02 7.08, 5.64 4.12, 8.86 2.41 C12.08 0.7, 18.03 0.39, 19.95 0.19 C21.87 -0.02, 20.41 0.93, 20.36 1.17 M19.68 0.93 C23.09 1.5, 27.28 3.98, 29.58 6.69 C31.88 9.39, 33.61 13.73, 33.45 17.15 C33.3 20.58, 31.18 24.49, 28.67 27.24 C26.16 29.98, 21.75 32.93, 18.38 33.6 C15 34.28, 11.37 33.24, 8.42 31.3 C5.47 29.37, 2 25.42, 0.68 21.98 C-0.63 18.53, -0.91 14.01, 0.54 10.65 C1.99 7.29, 6.21 3.55, 9.38 1.81 C12.55 0.08, 17.79 0.55, 19.54 0.25 C21.29 -0.05, 20 -0.32, 19.89 0.01" stroke="#000000" stroke-width="1" fill="none"></path></g><g stroke-linecap="round" transform="translate(92.7938213066825 51.68106306110775) rotate(0 16.474086468318035 16.63639273894188)"><path d="M16.9 -0.04 C20.35 -0.18, 25.12 1.65, 27.86 4.11 C30.59 6.56, 32.83 11.12, 33.29 14.69 C33.76 18.26, 32.72 22.49, 30.65 25.53 C28.58 28.56, 24.38 31.73, 20.87 32.89 C17.37 34.04, 12.85 33.96, 9.6 32.46 C6.35 30.96, 2.83 27.09, 1.37 23.88 C-0.08 20.67, 0.05 16.64, 0.89 13.19 C1.73 9.73, 3.5 5.27, 6.39 3.14 C9.29 1.01, 16.06 0.91, 18.24 0.42 C20.43 -0.06, 19.42 0.07, 19.5 0.25 M15.99 0.28 C19.47 -0.16, 24.36 1.37, 27.12 3.43 C29.88 5.48, 31.96 9.03, 32.55 12.61 C33.14 16.19, 32.2 21.59, 30.66 24.92 C29.13 28.26, 26.59 31.33, 23.36 32.63 C20.13 33.92, 14.87 33.84, 11.28 32.69 C7.7 31.54, 3.59 28.81, 1.84 25.73 C0.09 22.65, 0.24 17.81, 0.78 14.21 C1.31 10.62, 2.53 6.65, 5.05 4.17 C7.58 1.68, 14.23 -0.07, 15.92 -0.67 C17.6 -1.27, 15.08 0.23, 15.16 0.58" stroke="#000000" stroke-width="1" fill="none"></path></g><g stroke-linecap="round"><g transform="translate(105.05244188038455 155.7007400112953) rotate(13.687095229378706 2.7864704219582563 -0.4999737316975086)" fill-rule="evenodd"><path d="M0 0 C0.19 0.25, 0.5 0.93, 1.13 1.49 C1.77 2.06, 2.92 3.23, 3.8 3.38 C4.69 3.52, 5.95 2.91, 6.44 2.35 C6.92 1.79, 7.17 1.01, 6.73 0.01 C6.29 -0.99, 4.63 -2.91, 3.8 -3.65 C2.97 -4.38, 2.39 -4.35, 1.75 -4.38 C1.12 -4.4, 0.48 -4.14, 0 -3.79 C-0.49 -3.44, -1.16 -2.91, -1.15 -2.28 C-1.15 -1.64, -0.19 -0.38, 0 0" stroke="none" stroke-width="0" fill="#ffffff" fill-rule="evenodd"></path><path d="M0 0 C0.19 0.25, 0.5 0.93, 1.13 1.49 C1.77 2.06, 2.92 3.23, 3.8 3.38 C4.69 3.52, 5.95 2.91, 6.44 2.35 C6.92 1.79, 7.17 1.01, 6.73 0.01 C6.29 -0.99, 4.63 -2.91, 3.8 -3.65 C2.97 -4.38, 2.39 -4.35, 1.75 -4.38 C1.12 -4.4, 0.48 -4.14, 0 -3.79 C-0.49 -3.44, -1.16 -2.91, -1.15 -2.28 C-1.15 -1.64, -0.19 -0.38, 0 0 M0 0 C0.19 0.25, 0.5 0.93, 1.13 1.49 C1.77 2.06, 2.92 3.23, 3.8 3.38 C4.69 3.52, 5.95 2.91, 6.44 2.35 C6.92 1.79, 7.17 1.01, 6.73 0.01 C6.29 -0.99, 4.63 -2.91, 3.8 -3.65 C2.97 -4.38, 2.39 -4.35, 1.75 -4.38 C1.12 -4.4, 0.48 -4.14, 0 -3.79 C-0.49 -3.44, -1.16 -2.91, -1.15 -2.28 C-1.15 -1.64, -0.19 -0.38, 0 0" stroke="#000000" stroke-width="1" fill="none"></path></g></g><mask></mask><g stroke-linecap="round"><g transform="translate(50.34259503839655 155.31174578704787) rotate(72.62981121584629 2.7991442081656146 -0.6867578396195881)" fill-rule="evenodd"><path d="M0 0 C0.26 0.3, 0.93 1.23, 1.56 1.8 C2.19 2.36, 3.05 3.3, 3.8 3.38 C4.55 3.45, 5.62 2.85, 6.06 2.25 C6.5 1.65, 6.82 0.74, 6.44 -0.24 C6.06 -1.23, 4.58 -2.89, 3.8 -3.65 C3.03 -4.4, 2.43 -4.73, 1.79 -4.75 C1.16 -4.78, 0.44 -4.25, 0 -3.79 C-0.44 -3.33, -0.84 -2.64, -0.84 -2.01 C-0.84 -1.37, -0.14 -0.33, 0 0" stroke="none" stroke-width="0" fill="#ffffff" fill-rule="evenodd"></path><path d="M0 0 C0.26 0.3, 0.93 1.23, 1.56 1.8 C2.19 2.36, 3.05 3.3, 3.8 3.38 C4.55 3.45, 5.62 2.85, 6.06 2.25 C6.5 1.65, 6.82 0.74, 6.44 -0.24 C6.06 -1.23, 4.58 -2.89, 3.8 -3.65 C3.03 -4.4, 2.43 -4.73, 1.79 -4.75 C1.16 -4.78, 0.44 -4.25, 0 -3.79 C-0.44 -3.33, -0.84 -2.64, -0.84 -2.01 C-0.84 -1.37, -0.14 -0.33, 0 0 M0 0 C0.26 0.3, 0.93 1.23, 1.56 1.8 C2.19 2.36, 3.05 3.3, 3.8 3.38 C4.55 3.45, 5.62 2.85, 6.06 2.25 C6.5 1.65, 6.82 0.74, 6.44 -0.24 C6.06 -1.23, 4.58 -2.89, 3.8 -3.65 C3.03 -4.4, 2.43 -4.73, 1.79 -4.75 C1.16 -4.78, 0.44 -4.25, 0 -3.79 C-0.44 -3.33, -0.84 -2.64, -0.84 -2.01 C-0.84 -1.37, -0.14 -0.33, 0 0" stroke="#000000" stroke-width="1" fill="none"></path></g></g><mask></mask><g stroke-linecap="round"><g transform="translate(43.206747278809075 100.53456957804957) rotate(155.1023009552614 2.3490372354233386 -0.09785952940165998)" fill-rule="evenodd"><path d="M0 0 C0.25 0.33, 0.85 1.27, 1.47 1.96 C2.09 2.64, 2.97 3.99, 3.71 4.11 C4.45 4.24, 5.75 3.37, 5.9 2.72 C6.05 2.07, 5.09 1.05, 4.61 0.21 C4.13 -0.62, 3.58 -1.54, 3.01 -2.3 C2.44 -3.05, 1.8 -4.08, 1.21 -4.31 C0.61 -4.54, -0.15 -3.95, -0.55 -3.68 C-0.95 -3.4, -1.13 -3, -1.2 -2.65 C-1.27 -2.3, -1.16 -2.03, -0.96 -1.59 C-0.76 -1.15, -0.16 -0.26, 0 0" stroke="none" stroke-width="0" fill="#ffffff" fill-rule="evenodd"></path><path d="M0 0 C0.25 0.33, 0.85 1.27, 1.47 1.96 C2.09 2.64, 2.97 3.99, 3.71 4.11 C4.45 4.24, 5.75 3.37, 5.9 2.72 C6.05 2.07, 5.09 1.05, 4.61 0.21 C4.13 -0.62, 3.58 -1.54, 3.01 -2.3 C2.44 -3.05, 1.8 -4.08, 1.21 -4.31 C0.61 -4.54, -0.15 -3.95, -0.55 -3.68 C-0.95 -3.4, -1.13 -3, -1.2 -2.65 C-1.27 -2.3, -1.16 -2.03, -0.96 -1.59 C-0.76 -1.15, -0.16 -0.26, 0 0 M0 0 C0.25 0.33, 0.85 1.27, 1.47 1.96 C2.09 2.64, 2.97 3.99, 3.71 4.11 C4.45 4.24, 5.75 3.37, 5.9 2.72 C6.05 2.07, 5.09 1.05, 4.61 0.21 C4.13 -0.62, 3.58 -1.54, 3.01 -2.3 C2.44 -3.05, 1.8 -4.08, 1.21 -4.31 C0.61 -4.54, -0.15 -3.95, -0.55 -3.68 C-0.95 -3.4, -1.13 -3, -1.2 -2.65 C-1.27 -2.3, -1.16 -2.03, -0.96 -1.59 C-0.76 -1.15, -0.16 -0.26, 0 0" stroke="#000000" stroke-width="1" fill="none"></path></g></g><mask></mask><g stroke-linecap="round"><g transform="translate(118.72844830175052 101.00633478656295) rotate(271.45101079152755 2.3490372354233386 -0.09785952940165998)" fill-rule="evenodd"><path d="M0 0 C0.25 0.33, 0.85 1.27, 1.47 1.96 C2.09 2.64, 2.97 3.99, 3.71 4.11 C4.45 4.24, 5.75 3.37, 5.9 2.72 C6.05 2.07, 5.09 1.05, 4.61 0.21 C4.13 -0.62, 3.58 -1.54, 3.01 -2.3 C2.44 -3.05, 1.8 -4.08, 1.21 -4.31 C0.61 -4.54, -0.15 -3.95, -0.55 -3.68 C-0.95 -3.4, -1.13 -3, -1.2 -2.65 C-1.27 -2.3, -1.16 -2.03, -0.96 -1.59 C-0.76 -1.15, -0.16 -0.26, 0 0" stroke="none" stroke-width="0" fill="#ffffff" fill-rule="evenodd"></path><path d="M0 0 C0.25 0.33, 0.85 1.27, 1.47 1.96 C2.09 2.64, 2.97 3.99, 3.71 4.11 C4.45 4.24, 5.75 3.37, 5.9 2.72 C6.05 2.07, 5.09 1.05, 4.61 0.21 C4.13 -0.62, 3.58 -1.54, 3.01 -2.3 C2.44 -3.05, 1.8 -4.08, 1.21 -4.31 C0.61 -4.54, -0.15 -3.95, -0.55 -3.68 C-0.95 -3.4, -1.13 -3, -1.2 -2.65 C-1.27 -2.3, -1.16 -2.03, -0.96 -1.59 C-0.76 -1.15, -0.16 -0.26, 0 0 M0 0 C0.25 0.33, 0.85 1.27, 1.47 1.96 C2.09 2.64, 2.97 3.99, 3.71 4.11 C4.45 4.24, 5.75 3.37, 5.9 2.72 C6.05 2.07, 5.09 1.05, 4.61 0.21 C4.13 -0.62, 3.58 -1.54, 3.01 -2.3 C2.44 -3.05, 1.8 -4.08, 1.21 -4.31 C0.61 -4.54, -0.15 -3.95, -0.55 -3.68 C-0.95 -3.4, -1.13 -3, -1.2 -2.65 C-1.27 -2.3, -1.16 -2.03, -0.96 -1.59 C-0.76 -1.15, -0.16 -0.26, 0 0" stroke="#000000" stroke-width="1" fill="none"></path></g></g><mask></mask><g stroke-linecap="round" transform="translate(55.06957536863956 64.87467401088469) rotate(0 3.327278547788353 3.1649722771645656)"><path d="M2.92 0.14 C3.58 -0.1, 4.17 -0.14, 4.73 0.2 C5.3 0.53, 6.08 1.5, 6.32 2.15 C6.57 2.81, 6.4 3.52, 6.2 4.14 C5.99 4.77, 5.66 5.6, 5.1 5.91 C4.55 6.21, 3.52 6.12, 2.84 5.97 C2.16 5.83, 1.48 5.46, 1.04 5.03 C0.59 4.6, 0.19 4.04, 0.16 3.38 C0.12 2.72, 0.43 1.61, 0.85 1.05 C1.27 0.49, 2.32 0.22, 2.68 0.02 C3.04 -0.19, 2.93 -0.18, 3.01 -0.17 M2.57 0.03 C3.23 -0.03, 4.07 0.69, 4.67 0.98 C5.27 1.27, 5.92 1.18, 6.18 1.77 C6.43 2.36, 6.41 3.85, 6.2 4.54 C5.99 5.24, 5.44 5.57, 4.93 5.94 C4.41 6.3, 3.79 6.9, 3.1 6.73 C2.41 6.56, 1.23 5.54, 0.76 4.91 C0.3 4.27, 0.25 3.55, 0.3 2.92 C0.35 2.29, 0.66 1.68, 1.07 1.12 C1.48 0.56, 2.53 -0.22, 2.77 -0.44 C3.01 -0.66, 2.42 -0.29, 2.51 -0.22" stroke="none" stroke-width="0" fill="#000000"></path><path d="M3.69 -0.22 C4.47 -0.19, 5.44 0.48, 5.97 0.97 C6.5 1.47, 6.9 2.05, 6.87 2.76 C6.84 3.46, 6.27 4.55, 5.78 5.19 C5.29 5.82, 4.6 6.44, 3.92 6.55 C3.23 6.65, 2.21 6.13, 1.66 5.83 C1.12 5.52, 0.92 5.31, 0.64 4.71 C0.37 4.11, -0.09 2.88, 0.01 2.23 C0.1 1.58, 0.64 1.2, 1.23 0.79 C1.83 0.38, 3.12 -0.1, 3.58 -0.25 C4.03 -0.4, 3.96 -0.19, 3.95 -0.12 M4.09 -0.04 C4.75 -0.09, 5.36 0.08, 5.75 0.65 C6.13 1.21, 6.29 2.53, 6.41 3.34 C6.52 4.14, 6.85 4.95, 6.44 5.46 C6.04 5.97, 4.84 6.28, 3.99 6.4 C3.14 6.52, 1.91 6.51, 1.36 6.16 C0.81 5.81, 0.92 4.98, 0.67 4.31 C0.43 3.64, -0.26 2.86, -0.11 2.15 C0.04 1.44, 0.99 0.38, 1.55 0.05 C2.11 -0.28, 2.84 0.2, 3.25 0.18 C3.66 0.16, 3.97 -0.03, 4.02 -0.07" stroke="#000000" stroke-width="1" fill="none"></path></g><g stroke-linecap="round" transform="translate(58.70365263457518 65.42133291936386) rotate(0 0.6492250824953203 0.8115313531191077)"><path d="M1.3 0.81 C1.3 0.86, 1.3 0.91, 1.29 0.95 C1.28 1, 1.27 1.04, 1.26 1.09 C1.25 1.13, 1.23 1.18, 1.21 1.22 C1.19 1.26, 1.17 1.3, 1.15 1.33 C1.12 1.37, 1.1 1.4, 1.07 1.43 C1.04 1.46, 1.01 1.49, 0.97 1.51 C0.94 1.54, 0.91 1.56, 0.87 1.57 C0.84 1.59, 0.8 1.6, 0.76 1.61 C0.72 1.62, 0.69 1.62, 0.65 1.62 C0.61 1.62, 0.57 1.62, 0.54 1.61 C0.5 1.6, 0.46 1.59, 0.43 1.57 C0.39 1.56, 0.36 1.54, 0.32 1.51 C0.29 1.49, 0.26 1.46, 0.23 1.43 C0.2 1.4, 0.18 1.37, 0.15 1.33 C0.13 1.3, 0.11 1.26, 0.09 1.22 C0.07 1.18, 0.05 1.13, 0.04 1.09 C0.03 1.04, 0.02 1, 0.01 0.95 C0 0.91, 0 0.86, 0 0.81 C0 0.76, 0 0.72, 0.01 0.67 C0.02 0.62, 0.03 0.58, 0.04 0.53 C0.05 0.49, 0.07 0.45, 0.09 0.41 C0.11 0.37, 0.13 0.33, 0.15 0.29 C0.18 0.25, 0.2 0.22, 0.23 0.19 C0.26 0.16, 0.29 0.13, 0.32 0.11 C0.36 0.09, 0.39 0.07, 0.43 0.05 C0.46 0.03, 0.5 0.02, 0.54 0.01 C0.57 0, 0.61 0, 0.65 0 C0.69 0, 0.72 0, 0.76 0.01 C0.8 0.02, 0.84 0.03, 0.87 0.05 C0.91 0.07, 0.94 0.09, 0.97 0.11 C1.01 0.13, 1.04 0.16, 1.07 0.19 C1.1 0.22, 1.12 0.25, 1.15 0.29 C1.17 0.33, 1.19 0.37, 1.21 0.41 C1.23 0.45, 1.25 0.49, 1.26 0.53 C1.27 0.58, 1.28 0.62, 1.29 0.67 C1.3 0.72, 1.3 0.79, 1.3 0.81 C1.3 0.84, 1.3 0.79, 1.3 0.81" stroke="none" stroke-width="0" fill="#ffffff"></path><path d="M1.3 0.81 C1.3 0.86, 1.3 0.91, 1.29 0.95 C1.28 1, 1.27 1.04, 1.26 1.09 C1.25 1.13, 1.23 1.18, 1.21 1.22 C1.19 1.26, 1.17 1.3, 1.15 1.33 C1.12 1.37, 1.1 1.4, 1.07 1.43 C1.04 1.46, 1.01 1.49, 0.97 1.51 C0.94 1.54, 0.91 1.56, 0.87 1.57 C0.84 1.59, 0.8 1.6, 0.76 1.61 C0.72 1.62, 0.69 1.62, 0.65 1.62 C0.61 1.62, 0.57 1.62, 0.54 1.61 C0.5 1.6, 0.46 1.59, 0.43 1.57 C0.39 1.56, 0.36 1.54, 0.32 1.51 C0.29 1.49, 0.26 1.46, 0.23 1.43 C0.2 1.4, 0.18 1.37, 0.15 1.33 C0.13 1.3, 0.11 1.26, 0.09 1.22 C0.07 1.18, 0.05 1.13, 0.04 1.09 C0.03 1.04, 0.02 1, 0.01 0.95 C0 0.91, 0 0.86, 0 0.81 C0 0.76, 0 0.72, 0.01 0.67 C0.02 0.62, 0.03 0.58, 0.04 0.53 C0.05 0.49, 0.07 0.45, 0.09 0.41 C0.11 0.37, 0.13 0.33, 0.15 0.29 C0.18 0.25, 0.2 0.22, 0.23 0.19 C0.26 0.16, 0.29 0.13, 0.32 0.11 C0.36 0.09, 0.39 0.07, 0.43 0.05 C0.46 0.03, 0.5 0.02, 0.54 0.01 C0.57 0, 0.61 0, 0.65 0 C0.69 0, 0.72 0, 0.76 0.01 C0.8 0.02, 0.84 0.03, 0.87 0.05 C0.91 0.07, 0.94 0.09, 0.97 0.11 C1.01 0.13, 1.04 0.16, 1.07 0.19 C1.1 0.22, 1.12 0.25, 1.15 0.29 C1.17 0.33, 1.19 0.37, 1.21 0.41 C1.23 0.45, 1.25 0.49, 1.26 0.53 C1.27 0.58, 1.28 0.62, 1.29 0.67 C1.3 0.72, 1.3 0.79, 1.3 0.81 C1.3 0.84, 1.3 0.79, 1.3 0.81" stroke="#ffffff" stroke-width="1" fill="none"></path></g><g stroke-linecap="round" transform="translate(106.958608824306 65.55697888863602) rotate(0 3.327278547788353 3.1649722771645656)"><path d="M3.34 0.01 C4.04 0.01, 4.79 0.22, 5.37 0.68 C5.94 1.13, 6.66 2.09, 6.81 2.74 C6.96 3.4, 6.65 4.04, 6.29 4.59 C5.92 5.15, 5.29 5.78, 4.61 6.08 C3.93 6.38, 2.89 6.62, 2.18 6.37 C1.48 6.12, 0.77 5.23, 0.39 4.58 C0 3.92, -0.29 3.14, -0.12 2.44 C0.04 1.75, 0.72 0.84, 1.38 0.38 C2.04 -0.07, 3.49 -0.2, 3.83 -0.3 C4.17 -0.39, 3.45 -0.27, 3.42 -0.21 M3 -0.44 C3.72 -0.54, 4.66 0.4, 5.27 0.91 C5.88 1.41, 6.43 1.86, 6.67 2.58 C6.9 3.3, 7.05 4.66, 6.7 5.22 C6.35 5.79, 5.24 5.82, 4.54 5.96 C3.84 6.09, 3.14 6.21, 2.49 6.03 C1.84 5.84, 1.06 5.49, 0.64 4.84 C0.21 4.2, -0.1 2.88, -0.08 2.15 C-0.05 1.41, 0.17 0.85, 0.79 0.43 C1.42 0.02, 3.28 -0.24, 3.66 -0.32 C4.04 -0.4, 3.16 -0.19, 3.07 -0.04" stroke="none" stroke-width="0" fill="#000000"></path><path d="M3.17 -0.08 C3.74 -0.17, 4.36 0.31, 4.87 0.76 C5.37 1.2, 6.01 2.02, 6.21 2.59 C6.41 3.17, 6.27 3.6, 6.09 4.2 C5.91 4.8, 5.74 5.86, 5.13 6.17 C4.53 6.49, 3.23 6.25, 2.46 6.1 C1.69 5.94, 0.91 5.81, 0.5 5.25 C0.08 4.69, -0.16 3.46, -0.05 2.72 C0.07 1.97, 0.69 1.26, 1.19 0.79 C1.69 0.32, 2.61 0.02, 2.97 -0.1 C3.32 -0.21, 3.31 0.01, 3.34 0.12 M3.02 0.33 C3.78 0.4, 5.3 0.69, 5.88 1.08 C6.46 1.48, 6.53 2.07, 6.52 2.7 C6.5 3.33, 6.06 4.31, 5.79 4.87 C5.53 5.43, 5.57 5.83, 4.94 6.04 C4.31 6.24, 2.73 6.36, 1.99 6.08 C1.25 5.8, 0.91 4.89, 0.5 4.35 C0.09 3.81, -0.61 3.46, -0.45 2.84 C-0.3 2.21, 0.83 1.16, 1.42 0.62 C2 0.08, 2.76 -0.33, 3.06 -0.42 C3.36 -0.51, 3.24 0.02, 3.2 0.07" stroke="#000000" stroke-width="1" fill="none"></path></g><g stroke-linecap="round" transform="translate(110.59268609024195 66.2267172059345) rotate(0 0.6492250824953203 0.8115313531191077)"><path d="M1.3 0.81 C1.3 0.86, 1.3 0.91, 1.29 0.95 C1.28 1, 1.27 1.04, 1.26 1.09 C1.25 1.13, 1.23 1.18, 1.21 1.22 C1.19 1.26, 1.17 1.3, 1.15 1.33 C1.12 1.37, 1.1 1.4, 1.07 1.43 C1.04 1.46, 1.01 1.49, 0.97 1.51 C0.94 1.54, 0.91 1.56, 0.87 1.57 C0.84 1.59, 0.8 1.6, 0.76 1.61 C0.72 1.62, 0.69 1.62, 0.65 1.62 C0.61 1.62, 0.57 1.62, 0.54 1.61 C0.5 1.6, 0.46 1.59, 0.43 1.57 C0.39 1.56, 0.36 1.54, 0.32 1.51 C0.29 1.49, 0.26 1.46, 0.23 1.43 C0.2 1.4, 0.18 1.37, 0.15 1.33 C0.13 1.3, 0.11 1.26, 0.09 1.22 C0.07 1.18, 0.05 1.13, 0.04 1.09 C0.03 1.04, 0.02 1, 0.01 0.95 C0 0.91, 0 0.86, 0 0.81 C0 0.76, 0 0.72, 0.01 0.67 C0.02 0.62, 0.03 0.58, 0.04 0.53 C0.05 0.49, 0.07 0.45, 0.09 0.41 C0.11 0.37, 0.13 0.33, 0.15 0.29 C0.18 0.25, 0.2 0.22, 0.23 0.19 C0.26 0.16, 0.29 0.13, 0.32 0.11 C0.36 0.09, 0.39 0.07, 0.43 0.05 C0.46 0.03, 0.5 0.02, 0.54 0.01 C0.57 0, 0.61 0, 0.65 0 C0.69 0, 0.72 0, 0.76 0.01 C0.8 0.02, 0.84 0.03, 0.87 0.05 C0.91 0.07, 0.94 0.09, 0.97 0.11 C1.01 0.13, 1.04 0.16, 1.07 0.19 C1.1 0.22, 1.12 0.25, 1.15 0.29 C1.17 0.33, 1.19 0.37, 1.21 0.41 C1.23 0.45, 1.25 0.49, 1.26 0.53 C1.27 0.58, 1.28 0.62, 1.29 0.67 C1.3 0.72, 1.3 0.79, 1.3 0.81 C1.3 0.84, 1.3 0.79, 1.3 0.81" stroke="none" stroke-width="0" fill="#ffffff"></path><path d="M1.3 0.81 C1.3 0.86, 1.3 0.91, 1.29 0.95 C1.28 1, 1.27 1.04, 1.26 1.09 C1.25 1.13, 1.23 1.18, 1.21 1.22 C1.19 1.26, 1.17 1.3, 1.15 1.33 C1.12 1.37, 1.1 1.4, 1.07 1.43 C1.04 1.46, 1.01 1.49, 0.97 1.51 C0.94 1.54, 0.91 1.56, 0.87 1.57 C0.84 1.59, 0.8 1.6, 0.76 1.61 C0.72 1.62, 0.69 1.62, 0.65 1.62 C0.61 1.62, 0.57 1.62, 0.54 1.61 C0.5 1.6, 0.46 1.59, 0.43 1.57 C0.39 1.56, 0.36 1.54, 0.32 1.51 C0.29 1.49, 0.26 1.46, 0.23 1.43 C0.2 1.4, 0.18 1.37, 0.15 1.33 C0.13 1.3, 0.11 1.26, 0.09 1.22 C0.07 1.18, 0.05 1.13, 0.04 1.09 C0.03 1.04, 0.02 1, 0.01 0.95 C0 0.91, 0 0.86, 0 0.81 C0 0.76, 0 0.72, 0.01 0.67 C0.02 0.62, 0.03 0.58, 0.04 0.53 C0.05 0.49, 0.07 0.45, 0.09 0.41 C0.11 0.37, 0.13 0.33, 0.15 0.29 C0.18 0.25, 0.2 0.22, 0.23 0.19 C0.26 0.16, 0.29 0.13, 0.32 0.11 C0.36 0.09, 0.39 0.07, 0.43 0.05 C0.46 0.03, 0.5 0.02, 0.54 0.01 C0.57 0, 0.61 0, 0.65 0 C0.69 0, 0.72 0, 0.76 0.01 C0.8 0.02, 0.84 0.03, 0.87 0.05 C0.91 0.07, 0.94 0.09, 0.97 0.11 C1.01 0.13, 1.04 0.16, 1.07 0.19 C1.1 0.22, 1.12 0.25, 1.15 0.29 C1.17 0.33, 1.19 0.37, 1.21 0.41 C1.23 0.45, 1.25 0.49, 1.26 0.53 C1.27 0.58, 1.28 0.62, 1.29 0.67 C1.3 0.72, 1.3 0.79, 1.3 0.81 C1.3 0.84, 1.3 0.79, 1.3 0.81" stroke="#ffffff" stroke-width="1" fill="none"></path></g><g stroke-linecap="round"><g transform="translate(76.74144735547338 88.45595036584712) rotate(0 6.458060065246684 -1.7143479845568663)" fill-rule="evenodd"><path d="M0 0 C0.04 -0.35, -0.17 -1.33, 0.23 -2.09 C0.62 -2.85, 1.39 -4.04, 2.37 -4.55 C3.35 -5.06, 4.97 -5.11, 6.12 -5.16 C7.28 -5.2, 8.28 -5.18, 9.28 -4.82 C10.27 -4.45, 11.5 -3.68, 12.11 -2.96 C12.72 -2.24, 12.98 -1.22, 12.92 -0.49 C12.85 0.24, 12.77 1.21, 11.7 1.43 C10.63 1.65, 7.95 0.8, 6.49 0.85 C5.03 0.9, 3.88 1.67, 2.94 1.73 C1.99 1.79, 1.32 1.5, 0.83 1.24 C0.35 0.98, 0.17 0.34, 0.03 0.16" stroke="none" stroke-width="0" fill="#ccbdac" fill-rule="evenodd"></path><path d="M0 0 C0.04 -0.35, -0.17 -1.33, 0.23 -2.09 C0.62 -2.85, 1.39 -4.04, 2.37 -4.55 C3.35 -5.06, 4.97 -5.11, 6.12 -5.16 C7.28 -5.2, 8.28 -5.18, 9.28 -4.82 C10.27 -4.45, 11.5 -3.68, 12.11 -2.96 C12.72 -2.24, 12.98 -1.22, 12.92 -0.49 C12.85 0.24, 12.77 1.21, 11.7 1.43 C10.63 1.65, 7.95 0.8, 6.49 0.85 C5.03 0.9, 3.88 1.67, 2.94 1.73 C1.99 1.79, 1.32 1.5, 0.83 1.24 C0.35 0.98, 0.17 0.34, 0.03 0.16 M0 0 C0.04 -0.35, -0.17 -1.33, 0.23 -2.09 C0.62 -2.85, 1.39 -4.04, 2.37 -4.55 C3.35 -5.06, 4.97 -5.11, 6.12 -5.16 C7.28 -5.2, 8.28 -5.18, 9.28 -4.82 C10.27 -4.45, 11.5 -3.68, 12.11 -2.96 C12.72 -2.24, 12.98 -1.22, 12.92 -0.49 C12.85 0.24, 12.77 1.21, 11.7 1.43 C10.63 1.65, 7.95 0.8, 6.49 0.85 C5.03 0.9, 3.88 1.67, 2.94 1.73 C1.99 1.79, 1.32 1.5, 0.83 1.24 C0.35 0.98, 0.17 0.34, 0.03 0.16" stroke="#000000" stroke-width="1" fill="none"></path></g></g><mask></mask><g stroke-linecap="round"><g transform="translate(81.92853599150726 89.55545026385812) rotate(0 -1.6090562371512647 -2.491415005244079)" fill-rule="evenodd"><path d="M0 0 C-0.09 -0.02, -0.07 0.03, -0.53 -0.1 C-0.99 -0.23, -2.3 -0.43, -2.73 -0.79 C-3.16 -1.15, -3.27 -1.84, -3.1 -2.26 C-2.93 -2.67, -2.47 -3.06, -1.69 -3.3 C-0.91 -3.55, 1.36 -3.34, 1.57 -3.72 C1.77 -4.11, 0.22 -5.35, -0.49 -5.61 C-1.19 -5.86, -2.08 -5.5, -2.66 -5.27 C-3.23 -5.03, -3.62 -4.53, -3.93 -4.19 C-4.25 -3.86, -4.41 -3.63, -4.55 -3.27 C-4.69 -2.91, -4.78 -2.49, -4.78 -2.05 C-4.79 -1.61, -4.75 -1.02, -4.59 -0.64 C-4.43 -0.26, -4.11 0.04, -3.82 0.25 C-3.54 0.46, -3.33 0.61, -2.89 0.62 C-2.45 0.63, -1.66 0.42, -1.18 0.32 C-0.7 0.22, -0.2 0.05, 0 0" stroke="none" stroke-width="0" fill="#958b7f" fill-rule="evenodd"></path><path d="M0 0 C-0.09 -0.02, -0.07 0.03, -0.53 -0.1 C-0.99 -0.23, -2.3 -0.43, -2.73 -0.79 C-3.16 -1.15, -3.27 -1.84, -3.1 -2.26 C-2.93 -2.67, -2.47 -3.06, -1.69 -3.3 C-0.91 -3.55, 1.36 -3.34, 1.57 -3.72 C1.77 -4.11, 0.22 -5.35, -0.49 -5.61 C-1.19 -5.86, -2.08 -5.5, -2.66 -5.27 C-3.23 -5.03, -3.62 -4.53, -3.93 -4.19 C-4.25 -3.86, -4.41 -3.63, -4.55 -3.27 C-4.69 -2.91, -4.78 -2.49, -4.78 -2.05 C-4.79 -1.61, -4.75 -1.02, -4.59 -0.64 C-4.43 -0.26, -4.11 0.04, -3.82 0.25 C-3.54 0.46, -3.33 0.61, -2.89 0.62 C-2.45 0.63, -1.66 0.42, -1.18 0.32 C-0.7 0.22, -0.2 0.05, 0 0 M0 0 C-0.09 -0.02, -0.07 0.03, -0.53 -0.1 C-0.99 -0.23, -2.3 -0.43, -2.73 -0.79 C-3.16 -1.15, -3.27 -1.84, -3.1 -2.26 C-2.93 -2.67, -2.47 -3.06, -1.69 -3.3 C-0.91 -3.55, 1.36 -3.34, 1.57 -3.72 C1.77 -4.11, 0.22 -5.35, -0.49 -5.61 C-1.19 -5.86, -2.08 -5.5, -2.66 -5.27 C-3.23 -5.03, -3.62 -4.53, -3.93 -4.19 C-4.25 -3.86, -4.41 -3.63, -4.55 -3.27 C-4.69 -2.91, -4.78 -2.49, -4.78 -2.05 C-4.79 -1.61, -4.75 -1.02, -4.59 -0.64 C-4.43 -0.26, -4.11 0.04, -3.82 0.25 C-3.54 0.46, -3.33 0.61, -2.89 0.62 C-2.45 0.63, -1.66 0.42, -1.18 0.32 C-0.7 0.22, -0.2 0.05, 0 0" stroke="#958b7f" stroke-width="1" fill="none"></path></g></g><mask></mask><g stroke-linecap="round"><g transform="translate(76.6832980753104 88.45410277423093) rotate(0 6.484155825464427 -1.7317451580353804)"><path d="M0 0 C0.05 -0.35, -0.12 -1.35, 0.28 -2.11 C0.68 -2.87, 1.44 -4.05, 2.42 -4.56 C3.41 -5.08, 5.03 -5.13, 6.18 -5.18 C7.33 -5.22, 8.33 -5.2, 9.33 -4.83 C10.33 -4.47, 11.55 -3.7, 12.16 -2.98 C12.77 -2.26, 13.04 -1.24, 12.97 -0.51 C12.9 0.22, 12.82 1.19, 11.75 1.41 C10.68 1.64, 8.01 0.79, 6.54 0.84 C5.08 0.89, 3.93 1.65, 2.99 1.71 C2.05 1.78, 1.38 1.51, 0.89 1.22 C0.39 0.94, 0.15 0.2, 0 0 M0 0 C0.05 -0.35, -0.12 -1.35, 0.28 -2.11 C0.68 -2.87, 1.44 -4.05, 2.42 -4.56 C3.41 -5.08, 5.03 -5.13, 6.18 -5.18 C7.33 -5.22, 8.33 -5.2, 9.33 -4.83 C10.33 -4.47, 11.55 -3.7, 12.16 -2.98 C12.77 -2.26, 13.04 -1.24, 12.97 -0.51 C12.9 0.22, 12.82 1.19, 11.75 1.41 C10.68 1.64, 8.01 0.79, 6.54 0.84 C5.08 0.89, 3.93 1.65, 2.99 1.71 C2.05 1.78, 1.38 1.51, 0.89 1.22 C0.39 0.94, 0.15 0.2, 0 0" stroke="#000000" stroke-width="1" fill="none"></path></g></g><mask></mask><g stroke-linecap="round"><g transform="translate(78.65896133212709 82.66247427620073) rotate(0 4.380804369003215 0.33720026583498)" fill-rule="evenodd"><path d="M0 0 C0.02 -0.21, -0.17 -0.89, 0.1 -1.27 C0.38 -1.64, 0.93 -2.03, 1.65 -2.25 C2.36 -2.48, 3.55 -2.59, 4.39 -2.62 C5.23 -2.64, 5.96 -2.63, 6.69 -2.41 C7.42 -2.2, 8.47 -1.93, 8.76 -1.31 C9.06 -0.69, 9.11 0.53, 8.46 1.3 C7.82 2.06, 5.99 3.14, 4.89 3.29 C3.78 3.45, 2.59 2.61, 1.85 2.22 C1.12 1.83, 0.79 1.33, 0.48 0.96 C0.17 0.59, 0.08 0.16, 0 0" stroke="none" stroke-width="0" fill="#595755" fill-rule="evenodd"></path><path d="M0 0 C0.02 -0.21, -0.17 -0.89, 0.1 -1.27 C0.38 -1.64, 0.93 -2.03, 1.65 -2.25 C2.36 -2.48, 3.55 -2.59, 4.39 -2.62 C5.23 -2.64, 5.96 -2.63, 6.69 -2.41 C7.42 -2.2, 8.47 -1.93, 8.76 -1.31 C9.06 -0.69, 9.11 0.53, 8.46 1.3 C7.82 2.06, 5.99 3.14, 4.89 3.29 C3.78 3.45, 2.59 2.61, 1.85 2.22 C1.12 1.83, 0.79 1.33, 0.48 0.96 C0.17 0.59, 0.08 0.16, 0 0 M0 0 C0.02 -0.21, -0.17 -0.89, 0.1 -1.27 C0.38 -1.64, 0.93 -2.03, 1.65 -2.25 C2.36 -2.48, 3.55 -2.59, 4.39 -2.62 C5.23 -2.64, 5.96 -2.63, 6.69 -2.41 C7.42 -2.2, 8.47 -1.93, 8.76 -1.31 C9.06 -0.69, 9.11 0.53, 8.46 1.3 C7.82 2.06, 5.99 3.14, 4.89 3.29 C3.78 3.45, 2.59 2.61, 1.85 2.22 C1.12 1.83, 0.79 1.33, 0.48 0.96 C0.17 0.59, 0.08 0.16, 0 0" stroke="#000000" stroke-width="1" fill="none"></path></g></g><mask></mask><g stroke-linecap="round"><g transform="translate(84.24712578151878 85.62060975956933) rotate(0 -2.742132388356481 -2.6071192296458037)" fill-rule="evenodd"><path d="M0 0 C-0.21 -0.06, -0.81 -0.17, -1.26 -0.37 C-1.72 -0.56, -2.3 -0.84, -2.71 -1.18 C-3.12 -1.51, -3.57 -1.97, -3.73 -2.39 C-3.9 -2.8, -3.89 -3.29, -3.69 -3.69 C-3.5 -4.08, -3 -4.46, -2.58 -4.76 C-2.16 -5.06, -1.08 -5.42, -1.19 -5.5 C-1.3 -5.59, -2.67 -5.38, -3.24 -5.26 C-3.82 -5.14, -4.3 -5.02, -4.63 -4.79 C-4.97 -4.56, -5.11 -4.22, -5.25 -3.86 C-5.39 -3.51, -5.55 -3, -5.48 -2.64 C-5.42 -2.28, -5.08 -1.97, -4.85 -1.7 C-4.62 -1.44, -4.34 -1.26, -4.08 -1.06 C-3.83 -0.85, -3.62 -0.67, -3.31 -0.48 C-3 -0.3, -2.59 -0.08, -2.21 0.05 C-1.83 0.18, -1.22 0.25, -1.03 0.29" stroke="none" stroke-width="0" fill="#454342" fill-rule="evenodd"></path><path d="M0 0 C-0.21 -0.06, -0.81 -0.17, -1.26 -0.37 C-1.72 -0.56, -2.3 -0.84, -2.71 -1.18 C-3.12 -1.51, -3.57 -1.97, -3.73 -2.39 C-3.9 -2.8, -3.89 -3.29, -3.69 -3.69 C-3.5 -4.08, -3 -4.46, -2.58 -4.76 C-2.16 -5.06, -1.08 -5.42, -1.19 -5.5 C-1.3 -5.59, -2.67 -5.38, -3.24 -5.26 C-3.82 -5.14, -4.3 -5.02, -4.63 -4.79 C-4.97 -4.56, -5.11 -4.22, -5.25 -3.86 C-5.39 -3.51, -5.55 -3, -5.48 -2.64 C-5.42 -2.28, -5.08 -1.97, -4.85 -1.7 C-4.62 -1.44, -4.34 -1.26, -4.08 -1.06 C-3.83 -0.85, -3.62 -0.67, -3.31 -0.48 C-3 -0.3, -2.59 -0.08, -2.21 0.05 C-1.83 0.18, -1.22 0.25, -1.03 0.29 M0 0 C-0.21 -0.06, -0.81 -0.17, -1.26 -0.37 C-1.72 -0.56, -2.3 -0.84, -2.71 -1.18 C-3.12 -1.51, -3.57 -1.97, -3.73 -2.39 C-3.9 -2.8, -3.89 -3.29, -3.69 -3.69 C-3.5 -4.08, -3 -4.46, -2.58 -4.76 C-2.16 -5.06, -1.08 -5.42, -1.19 -5.5 C-1.3 -5.59, -2.67 -5.38, -3.24 -5.26 C-3.82 -5.14, -4.3 -5.02, -4.63 -4.79 C-4.97 -4.56, -5.11 -4.22, -5.25 -3.86 C-5.39 -3.51, -5.55 -3, -5.48 -2.64 C-5.42 -2.28, -5.08 -1.97, -4.85 -1.7 C-4.62 -1.44, -4.34 -1.26, -4.08 -1.06 C-3.83 -0.85, -3.62 -0.67, -3.31 -0.48 C-3 -0.3, -2.59 -0.08, -2.21 0.05 C-1.83 0.18, -1.22 0.25, -1.03 0.29" stroke="#454342" stroke-width="1" fill="none"></path></g></g><mask></mask><g stroke-linecap="round"><g transform="translate(78.64567432675994 82.65396349944757) rotate(0 4.380804369003215 0.33720026583498)"><path d="M0 0 C0.02 -0.21, -0.17 -0.89, 0.1 -1.27 C0.38 -1.64, 0.93 -2.03, 1.65 -2.25 C2.36 -2.48, 3.55 -2.59, 4.39 -2.62 C5.23 -2.64, 5.96 -2.63, 6.69 -2.41 C7.42 -2.2, 8.47 -1.93, 8.76 -1.31 C9.06 -0.69, 9.11 0.53, 8.46 1.3 C7.82 2.06, 5.99 3.14, 4.89 3.29 C3.78 3.45, 2.59 2.61, 1.85 2.22 C1.12 1.83, 0.79 1.33, 0.48 0.96 C0.17 0.59, 0.08 0.16, 0 0 M0 0 C0.02 -0.21, -0.17 -0.89, 0.1 -1.27 C0.38 -1.64, 0.93 -2.03, 1.65 -2.25 C2.36 -2.48, 3.55 -2.59, 4.39 -2.62 C5.23 -2.64, 5.96 -2.63, 6.69 -2.41 C7.42 -2.2, 8.47 -1.93, 8.76 -1.31 C9.06 -0.69, 9.11 0.53, 8.46 1.3 C7.82 2.06, 5.99 3.14, 4.89 3.29 C3.78 3.45, 2.59 2.61, 1.85 2.22 C1.12 1.83, 0.79 1.33, 0.48 0.96 C0.17 0.59, 0.08 0.16, 0 0" stroke="#000000" stroke-width="1" fill="none"></path></g></g><mask></mask><g stroke-linecap="round"><g transform="translate(85.55478497954812 81.27029194006076) rotate(0 0.455535979175977 0.7802322579008774)" fill-rule="evenodd"><path d="M0 0 C0.13 0.11, 0.63 0.39, 0.78 0.65 C0.93 0.91, 0.89 1.41, 0.91 1.56" stroke="none" stroke-width="0" fill="#454342" fill-rule="evenodd"></path><path d="M0 0 C0.13 0.11, 0.63 0.39, 0.78 0.65 C0.93 0.91, 0.89 1.41, 0.91 1.56 M0 0 C0.13 0.11, 0.63 0.39, 0.78 0.65 C0.93 0.91, 0.89 1.41, 0.91 1.56" stroke="#000000" stroke-width="1" fill="none"></path></g></g><mask></mask><g stroke-linecap="round"><g transform="translate(80.76553836432845 89.99180736093689) rotate(0 0.02728090321244281 1.20035974134791)"><path d="M0 0 C0.01 0.4, 0.05 2, 0.05 2.4 M0 0 C0.01 0.4, 0.05 2, 0.05 2.4" stroke="#000000" stroke-width="1" fill="none"></path></g></g><mask></mask><g stroke-linecap="round"><g transform="translate(80.73587624427785 92.05563113773019) rotate(0 3.0181116302334203 -0.42696958404616225)" fill-rule="evenodd"><path d="M0 0 C0.08 0.25, 0.13 1.16, 0.47 1.48 C0.8 1.8, 1.39 1.84, 1.99 1.92 C2.59 2, 3.49 2.05, 4.07 1.97 C4.65 1.9, 5.16 1.84, 5.49 1.48 C5.81 1.12, 5.9 0.42, 6 -0.18 C6.09 -0.78, 6.29 -1.75, 6.06 -2.14 C5.83 -2.53, 5.17 -2.42, 4.6 -2.54 C4.04 -2.65, 3.42 -2.92, 2.65 -2.83 C1.88 -2.74, 0.42 -2.48, -0.02 -2.01 C-0.47 -1.54, 0 -0.33, 0 0" stroke="none" stroke-width="0" fill="#ffffff" fill-rule="evenodd"></path><path d="M0 0 C0.08 0.25, 0.13 1.16, 0.47 1.48 C0.8 1.8, 1.39 1.84, 1.99 1.92 C2.59 2, 3.49 2.05, 4.07 1.97 C4.65 1.9, 5.16 1.84, 5.49 1.48 C5.81 1.12, 5.9 0.42, 6 -0.18 C6.09 -0.78, 6.29 -1.75, 6.06 -2.14 C5.83 -2.53, 5.17 -2.42, 4.6 -2.54 C4.04 -2.65, 3.42 -2.92, 2.65 -2.83 C1.88 -2.74, 0.42 -2.48, -0.02 -2.01 C-0.47 -1.54, 0 -0.33, 0 0 M0 0 C0.08 0.25, 0.13 1.16, 0.47 1.48 C0.8 1.8, 1.39 1.84, 1.99 1.92 C2.59 2, 3.49 2.05, 4.07 1.97 C4.65 1.9, 5.16 1.84, 5.49 1.48 C5.81 1.12, 5.9 0.42, 6 -0.18 C6.09 -0.78, 6.29 -1.75, 6.06 -2.14 C5.83 -2.53, 5.17 -2.42, 4.6 -2.54 C4.04 -2.65, 3.42 -2.92, 2.65 -2.83 C1.88 -2.74, 0.42 -2.48, -0.02 -2.01 C-0.47 -1.54, 0 -0.33, 0 0" stroke="#000000" stroke-width="1" fill="none"></path></g></g><mask></mask><g stroke-linecap="round"><g transform="translate(83.65731410484841 89.66443652238746) rotate(0 0.06286170188298001 2.0460677409339496)" fill-rule="evenodd"><path d="M0 0 C0.02 0.3, 0.11 1.14, 0.13 1.82 C0.14 2.5, 0.11 3.71, 0.11 4.09" stroke="none" stroke-width="0" fill="#ffffff" fill-rule="evenodd"></path><path d="M0 0 C0.02 0.3, 0.11 1.14, 0.13 1.82 C0.14 2.5, 0.11 3.71, 0.11 4.09 M0 0 C0.02 0.3, 0.11 1.14, 0.13 1.82 C0.14 2.5, 0.11 3.71, 0.11 4.09" stroke="#000000" stroke-width="1" fill="none"></path></g></g><mask></mask><g stroke-linecap="round" transform="translate(91.05128359228195 107.98115229065547) rotate(16.687830541157332 9.518348284666331 9.367263391258945)"><path d="M8.54 0.54 C10.51 0.23, 13.7 0.61, 15.36 1.71 C17.02 2.81, 18.04 5.18, 18.5 7.13 C18.95 9.09, 18.88 11.66, 18.08 13.42 C17.29 15.17, 15.64 16.91, 13.74 17.68 C11.84 18.45, 8.74 18.47, 6.7 18.05 C4.66 17.63, 2.65 16.77, 1.48 15.17 C0.32 13.56, -0.48 10.5, -0.29 8.4 C-0.11 6.31, 1.05 4.04, 2.6 2.61 C4.15 1.17, 7.97 0.21, 9.01 -0.22 C10.04 -0.66, 8.8 -0.2, 8.82 0 M10.02 0.7 C12.03 0.88, 15.25 1.41, 16.73 2.85 C18.2 4.28, 18.91 7.32, 18.89 9.31 C18.87 11.3, 17.82 13.33, 16.62 14.8 C15.41 16.26, 13.63 17.61, 11.67 18.13 C9.7 18.65, 6.63 18.79, 4.82 17.92 C3.01 17.05, 1.58 14.8, 0.81 12.9 C0.04 11.01, -0.42 8.51, 0.19 6.55 C0.79 4.59, 2.68 2.29, 4.43 1.13 C6.18 -0.02, 9.54 -0.18, 10.68 -0.38 C11.82 -0.58, 11.28 -0.21, 11.3 -0.06" stroke="none" stroke-width="0" fill="#cde9e9"></path><path d="M11.86 -0.2 C13.74 0.21, 16.15 2.54, 17.33 4.18 C18.51 5.82, 19.1 7.71, 18.94 9.65 C18.78 11.59, 17.83 14.39, 16.37 15.81 C14.91 17.24, 12.16 17.9, 10.17 18.18 C8.19 18.45, 6.1 18.53, 4.45 17.48 C2.79 16.42, 0.92 13.84, 0.24 11.86 C-0.44 9.88, -0.48 7.49, 0.36 5.6 C1.19 3.72, 3.37 1.34, 5.25 0.54 C7.13 -0.25, 10.42 0.79, 11.64 0.83 C12.87 0.87, 12.63 0.8, 12.58 0.8 M8.03 0.47 C9.93 0.28, 13.02 0.77, 14.68 1.92 C16.33 3.07, 17.42 5.46, 17.97 7.37 C18.53 9.29, 18.6 11.69, 18.01 13.43 C17.42 15.16, 16.23 17.02, 14.44 17.79 C12.65 18.55, 9.36 18.46, 7.26 18.01 C5.16 17.56, 3.16 16.53, 1.86 15.08 C0.55 13.64, -0.57 11.47, -0.56 9.35 C-0.55 7.23, 0.52 3.87, 1.91 2.35 C3.3 0.83, 6.76 0.58, 7.77 0.23 C8.77 -0.12, 7.93 0, 7.95 0.25" stroke="#343a40" stroke-width="1" fill="none"></path></g><g stroke-linecap="round"><g transform="translate(98.91235666023192 123.18706074362035) rotate(13.170412991716741 1.5097784609264409 -5.438763405545103)" fill-rule="evenodd"><path d="M0.51 -1.59 C-0.71 -2.86, -5.03 -5.39, -5.7 -7.13 C-6.37 -8.88, -4.35 -11.62, -3.52 -12.05 C-2.68 -12.47, -1.41 -10.58, -0.68 -9.69 C0.06 -8.8, 0.36 -6.88, 0.87 -6.71 C1.39 -6.54, 1.42 -8.13, 2.42 -8.65 C3.41 -9.17, 5.8 -10.29, 6.87 -9.83 C7.94 -9.36, 9.73 -7.18, 8.84 -5.85 C7.94 -4.51, 2.91 -2.86, 1.48 -1.83 C0.05 -0.81, 0.65 -0.19, 0.24 0.31" stroke="none" stroke-width="0" fill="#ffcaca" fill-rule="evenodd"></path><path d="M0.51 0.42 C-0.19 -0.68, -3.72 -4.35, -4.48 -6.21 C-5.23 -8.07, -4.87 -9.98, -4.02 -10.73 C-3.17 -11.47, -0.17 -11.19, 0.62 -10.67 C1.42 -10.16, 0.2 -7.62, 0.75 -7.61 C1.29 -7.61, 2.87 -10.2, 3.89 -10.66 C4.91 -11.13, 6.23 -11.17, 6.87 -10.41 C7.51 -9.65, 8.64 -7.65, 7.72 -6.13 C6.81 -4.61, 2.65 -2.3, 1.4 -1.27 C0.15 -0.24, 0.5 -0.09, 0.24 0.05 M0.11 0.16 C-0.65 -1.14, -4.44 -5.12, -4.95 -7.09 C-5.46 -9.07, -3.94 -11.17, -2.95 -11.69 C-1.97 -12.21, 0.21 -10.92, 0.97 -10.22 C1.73 -9.52, 1 -7.56, 1.6 -7.48 C2.2 -7.4, 3.66 -9.15, 4.54 -9.73 C5.42 -10.3, 6.41 -11.49, 6.89 -10.93 C7.36 -10.37, 8.2 -8.12, 7.42 -6.38 C6.63 -4.63, 3.33 -1.51, 2.19 -0.47 C1.04 0.56, 0.97 -0.19, 0.55 -0.16" stroke="#343a40" stroke-width="1" fill="none"></path></g></g><mask></mask><g stroke-linecap="round" transform="translate(101.76901399510382 109.77093526940689) rotate(16.687830541157332 0.8598697262304995 0.9380397013424329)"><path d="M0.88 0.21 C0.99 0.24, 1.29 0.35, 1.44 0.46 C1.59 0.56, 1.82 0.71, 1.78 0.84 C1.75 0.98, 1.37 1.06, 1.21 1.27 C1.05 1.48, 0.98 2.03, 0.81 2.08 C0.65 2.13, 0.36 1.74, 0.22 1.58 C0.09 1.42, -0.01 1.31, -0.02 1.12 C-0.02 0.94, 0.16 0.65, 0.22 0.46 C0.28 0.27, 0.17 0.07, 0.34 -0.01 C0.51 -0.08, 1.09 0.02, 1.23 0.02 C1.37 0.02, 1.26 0.02, 1.18 -0.01 M0.89 0.35 C0.97 0.36, 1 0.16, 1.13 0.21 C1.26 0.27, 1.65 0.44, 1.67 0.67 C1.69 0.91, 1.34 1.46, 1.24 1.63 C1.13 1.81, 1.2 1.72, 1.05 1.72 C0.9 1.73, 0.46 1.78, 0.32 1.66 C0.17 1.54, 0.21 1.22, 0.17 1.01 C0.14 0.79, -0.02 0.53, 0.1 0.36 C0.22 0.18, 0.71 0.05, 0.89 -0.06 C1.06 -0.18, 1.15 -0.42, 1.17 -0.33 C1.2 -0.24, 1.15 0.42, 1.06 0.49" stroke="none" stroke-width="0" fill="#868e96"></path><path d="M0.68 -0.16 C0.82 -0.24, 1.14 0.07, 1.26 0.15 C1.37 0.23, 1.29 0.09, 1.37 0.31 C1.46 0.53, 1.8 1.25, 1.77 1.47 C1.73 1.69, 1.39 1.57, 1.16 1.63 C0.94 1.69, 0.57 1.89, 0.41 1.82 C0.25 1.75, 0.31 1.32, 0.19 1.22 C0.07 1.12, -0.33 1.37, -0.31 1.23 C-0.29 1.1, 0.19 0.67, 0.31 0.42 C0.43 0.17, 0.38 -0.19, 0.43 -0.26 C0.48 -0.32, 0.6 0, 0.61 0.03 M0.5 0.47 C0.65 0.47, 1.03 0.44, 1.3 0.51 C1.58 0.58, 2.11 0.78, 2.15 0.89 C2.19 1, 1.7 0.99, 1.52 1.17 C1.34 1.34, 1.3 1.76, 1.06 1.93 C0.83 2.09, 0.35 2.31, 0.11 2.14 C-0.13 1.98, -0.29 1.16, -0.38 0.94 C-0.46 0.71, -0.47 0.93, -0.4 0.8 C-0.33 0.67, -0.1 0.22, 0.04 0.17 C0.19 0.12, 0.4 0.59, 0.5 0.49 C0.59 0.39, 0.57 -0.38, 0.61 -0.42" stroke="#343a40" stroke-width="1" fill="none"></path></g><g stroke-linecap="round"><g transform="translate(39.04743756305686 26.395095885439503) rotate(351.3652452826394 39.263021539330055 8.668323462867619)" fill-rule="evenodd"><path d="M-1.97 -1.42 L13.77 18.53 L66.43 21.76 L79.23 -1.34 L-0.87 0.62" stroke="none" stroke-width="0" fill="#000000" fill-rule="evenodd"></path><path d="M0 0 C1.63 3.36, 7.51 7.54, 12.99 19.01 M0 0 C2.63 3.72, 5.56 9.64, 12.99 19.01 M12.99 19.01 C31.22 19.26, 51.35 21.58, 66.13 20.13 M12.99 19.01 C26.77 19.97, 40.14 20.32, 66.13 20.13 M66.13 20.13 C69.89 13.12, 74.39 6.35, 78.53 -2.8 M66.13 20.13 C69.74 10.53, 74.34 2.51, 78.53 -2.8 M78.53 -2.8 C56.68 -3.67, 33.23 -0.63, 0 0 M78.53 -2.8 C48.79 -0.7, 21.22 -1.37, 0 0 M0 0 C0 0, 0 0, 0 0 M0 0 C0 0, 0 0, 0 0" stroke="#1e1e1e" stroke-width="1" fill="none"></path></g></g><mask></mask><g stroke-linecap="round"><g transform="translate(8.418997208559745 25.656097587990985) rotate(351.3652452826394 65.93992151657744 -5.608235399046208)" fill-rule="evenodd"><path d="M-0.87 1 L56.19 -16.73 L131.35 -3.46 L64.95 5.93 L-0.59 0.31" stroke="none" stroke-width="0" fill="#000000" fill-rule="evenodd"></path><path d="M0 0 C21.58 -5.82, 41.94 -14.09, 57.2 -16.23 M0 0 C18.48 -6.03, 37.72 -10.58, 57.2 -16.23 M57.2 -16.23 C73.37 -13.92, 86.54 -13.73, 132.17 -4.72 M57.2 -16.23 C75.69 -12.25, 95.12 -9.38, 132.17 -4.72 M132.17 -4.72 C118.97 -1.15, 103.94 -1, 64.93 5.02 M132.17 -4.72 C115.42 -1.59, 99.29 -0.77, 64.93 5.02 M64.93 5.02 C50.99 2.17, 39 1.98, -0.29 1.94 M64.93 5.02 C51.28 4.52, 38.36 4.89, -0.29 1.94 M-0.29 1.94 C-0.24 1.4, -0.06 0.66, 0 0 M-0.29 1.94 C-0.15 1.48, -0.21 1.12, 0 0" stroke="#ffffff" stroke-width="1" fill="none"></path></g></g><mask></mask></svg>