<svg version="1.1" xmlns="http://www.w3.org/2000/svg" viewBox="0 0 478.6744776541093 334.00570153120464" width="478.6744776541093" height="334.00570153120464">
  <!-- svg-source:excalidraw -->
  
  <defs>
    <style class="style-fonts">
      @font-face {
        font-family: "Virgil";
        src: url("https://excalidraw.com/Virgil.woff2");
      }
      @font-face {
        font-family: "Cascadia";
        src: url("https://excalidraw.com/Cascadia.woff2");
      }
      @font-face {
        font-family: "Assistant";
        src: url("https://excalidraw.com/Assistant-Regular.woff2");
      }
    </style>
    
  </defs>
  <g stroke-linecap="round" transform="translate(29.16452468324178 106.19089254377081) rotate(0 206.59943823417865 94.69801187210936)"><path d="M0 0 C147.7 0, 295.4 0, 413.2 0 M0 0 C103.51 0, 207.03 0, 413.2 0 M413.2 0 C413.2 42.44, 413.2 84.87, 413.2 189.4 M413.2 0 C413.2 41.63, 413.2 83.26, 413.2 189.4 M413.2 189.4 C318.58 189.4, 223.96 189.4, 0 189.4 M413.2 189.4 C249.41 189.4, 85.63 189.4, 0 189.4 M0 189.4 C0 150.5, 0 111.6, 0 0 M0 189.4 C0 125.12, 0 60.85, 0 0" stroke="#1e1e1e" stroke-width="1" fill="none"></path></g><g stroke-linecap="round" transform="translate(29.16452468324178 73.09234336419433) rotate(0 84.93884284019612 16.5)"><path d="M0 0 C45.56 0, 91.11 0, 169.88 0 M0 0 C37.54 0, 75.08 0, 169.88 0 M169.88 0 C169.88 12.35, 169.88 24.69, 169.88 33 M169.88 0 C169.88 11.79, 169.88 23.58, 169.88 33 M169.88 33 C126.68 33, 83.48 33, 0 33 M169.88 33 C118.28 33, 66.69 33, 0 33 M0 33 C0 21.37, 0 9.74, 0 0 M0 33 C0 24.53, 0 16.07, 0 0" stroke="#1e1e1e" stroke-width="1" fill="none"></path></g><g transform="translate(91.86094351220743 78.09234336419433) rotate(0 22.24242401123047 11.5)"><text x="22.24242401123047" y="18.400390625" font-family="Helvetica, Segoe UI Emoji" font-size="20px" fill="#1e1e1e" text-anchor="middle" style="white-space: pre;" direction="ltr" dominant-baseline="alphabetic">neon</text></g><g stroke-linecap="round" transform="translate(10 10) rotate(0 229.33723882705465 157.00285076560232)"><path d="M0 0 C144.8 0, 289.61 0, 458.67 0 M458.67 0 C458.67 103.69, 458.67 207.38, 458.67 314.01 M458.67 314.01 C285.88 314.01, 113.09 314.01, 0 314.01 M0 314.01 C0 213.05, 0 112.1, 0 0" stroke="#1e1e1e" stroke-width="1.5" fill="none" stroke-dasharray="8 9"></path></g><g stroke-linecap="round"><g transform="translate(259.00749791815065 137.33320568099532) rotate(0 51.292175615796964 12.974974981860157)" fill-rule="evenodd"><path d="M0 0 L0 25.95 L83.02 25.95 L102.58 12.94 L83.99 0 L0 0" stroke="none" stroke-width="0" fill="#5bc9e2" fill-rule="evenodd"></path><path d="M0 0 C0 7.54, 0 15.08, 0 25.95 M0 0 C0 9.28, 0 18.56, 0 25.95 M0 25.95 C27.82 25.95, 55.65 25.95, 83.02 25.95 M0 25.95 C32.64 25.95, 65.28 25.95, 83.02 25.95 M83.02 25.95 C88.84 22.08, 94.67 18.21, 102.58 12.94 M83.02 25.95 C87.1 23.24, 91.17 20.53, 102.58 12.94 M102.58 12.94 C96.14 8.46, 89.7 3.98, 83.99 0 M102.58 12.94 C95.87 8.27, 89.16 3.59, 83.99 0 M83.99 0 C54.72 0, 25.45 0, 0 0 M83.99 0 C50.79 0, 17.58 0, 0 0 M0 0 C0 0, 0 0, 0 0 M0 0 C0 0, 0 0, 0 0" stroke="#1e1e1e" stroke-width="1" fill="none"></path></g></g><mask></mask><g stroke-linecap="round"><g transform="translate(254.56485723631567 133.36963928204193) rotate(0 56.762894417025166 17.03348710170809)"><path d="M0 0 C0 6.82, 0 13.64, 0 34.07 M0 0 C0 10.49, 0 20.98, 0 34.07 M0 34.07 C32.87 34.07, 65.74 34.07, 87.61 34.07 M0 34.07 C29.67 34.07, 59.34 34.07, 87.61 34.07 M87.61 34.07 C92.98 30.62, 98.36 27.18, 113.53 17.45 M87.61 34.07 C96.67 28.26, 105.74 22.45, 113.53 17.45 M113.53 17.45 C104.11 10.86, 94.69 4.27, 88.58 0 M113.53 17.45 C106.29 12.39, 99.06 7.33, 88.58 0 M88.58 0 C64.77 0, 40.95 0, 0 0 M88.58 0 C62.44 0, 36.3 0, 0 0" stroke="#1e1e1e" stroke-width="1" fill="none"></path></g></g><mask></mask><g stroke-linecap="round"><g transform="translate(258.12356030494175 187.40424569620814) rotate(0 51.292175615796964 12.974974981860157)" fill-rule="evenodd"><path d="M0 0 L0 25.95 L83.02 25.95 L102.58 12.94 L83.99 0 L0 0" stroke="none" stroke-width="0" fill="#5bc9e2" fill-rule="evenodd"></path><path d="M0 0 C0 5.79, 0 11.59, 0 25.95 M0 0 C0 9.59, 0 19.19, 0 25.95 M0 25.95 C22.85 25.95, 45.7 25.95, 83.02 25.95 M0 25.95 C32.81 25.95, 65.61 25.95, 83.02 25.95 M83.02 25.95 C87.25 23.14, 91.48 20.33, 102.58 12.94 M83.02 25.95 C90.34 21.08, 97.66 16.22, 102.58 12.94 M102.58 12.94 C98.39 10.02, 94.19 7.1, 83.99 0 M102.58 12.94 C98.83 10.33, 95.08 7.72, 83.99 0 M83.99 0 C52.94 0, 21.89 0, 0 0 M83.99 0 C64.96 0, 45.94 0, 0 0 M0 0 C0 0, 0 0, 0 0 M0 0 C0 0, 0 0, 0 0" stroke="#1e1e1e" stroke-width="1" fill="none"></path></g></g><mask></mask><g stroke-linecap="round"><g transform="translate(253.68091962310677 183.44067929725475) rotate(0 56.762894417025166 17.03348710170809)"><path d="M0 0 C0 13.33, 0 26.67, 0 34.07 M0 0 C0 9.99, 0 19.98, 0 34.07 M0 34.07 C21.25 34.07, 42.49 34.07, 87.61 34.07 M0 34.07 C17.66 34.07, 35.32 34.07, 87.61 34.07 M87.61 34.07 C92.8 30.74, 98 27.41, 113.53 17.45 M87.61 34.07 C97.19 27.93, 106.77 21.78, 113.53 17.45 M113.53 17.45 C104.98 11.48, 96.44 5.5, 88.58 0 M113.53 17.45 C108.47 13.92, 103.42 10.38, 88.58 0 M88.58 0 C68.01 0, 47.44 0, 0 0 M88.58 0 C61.64 0, 34.7 0, 0 0" stroke="#1e1e1e" stroke-width="1" fill="none"></path></g></g><mask></mask><g stroke-linecap="round"><g transform="translate(258.40257220447506 240.26685293664002) rotate(0 51.292175615796964 12.974974981860214)" fill-rule="evenodd"><path d="M0 0 L0 25.95 L83.02 25.95 L102.58 12.94 L83.99 0 L0 0" stroke="none" stroke-width="0" fill="#5bc9e2" fill-rule="evenodd"></path><path d="M0 0 C0 8.99, 0 17.98, 0 25.95 M0 0 C0 8.91, 0 17.82, 0 25.95 M0 25.95 C17.04 25.95, 34.07 25.95, 83.02 25.95 M0 25.95 C19.84 25.95, 39.69 25.95, 83.02 25.95 M83.02 25.95 C89.43 21.69, 95.85 17.42, 102.58 12.94 M83.02 25.95 C87.51 22.97, 92 19.98, 102.58 12.94 M102.58 12.94 C96.53 8.73, 90.48 4.51, 83.99 0 M102.58 12.94 C98.39 10.02, 94.2 7.11, 83.99 0 M83.99 0 C62.81 0, 41.62 0, 0 0 M83.99 0 C55.93 0, 27.87 0, 0 0 M0 0 C0 0, 0 0, 0 0 M0 0 C0 0, 0 0, 0 0" stroke="#1e1e1e" stroke-width="1" fill="none"></path></g></g><mask></mask><g stroke-linecap="round"><g transform="translate(253.9599315226401 236.30328653768663) rotate(0 56.762894417025166 17.033487101708147)"><path d="M0 0 C0 13.13, 0 26.26, 0 34.07 M0 0 C0 8.8, 0 17.6, 0 34.07 M0 34.07 C32.65 34.07, 65.31 34.07, 87.61 34.07 M0 34.07 C25.17 34.07, 50.35 34.07, 87.61 34.07 M87.61 34.07 C96.51 28.36, 105.42 22.65, 113.53 17.45 M87.61 34.07 C93.61 30.22, 99.62 26.37, 113.53 17.45 M113.53 17.45 C106.75 12.71, 99.97 7.97, 88.58 0 M113.53 17.45 C105.97 12.17, 98.42 6.88, 88.58 0 M88.58 0 C56.58 0, 24.59 0, 0 0 M88.58 0 C64.9 0, 41.21 0, 0 0" stroke="#1e1e1e" stroke-width="1" fill="none"></path></g></g><mask></mask><g transform="translate(25.212528895671312 18.05761471699691) rotate(0 115.6515121459961 11.5)"><text x="0" y="18.400390625" font-family="Helvetica, Segoe UI Emoji" font-size="20px" fill="#1e1e1e" text-anchor="start" style="white-space: pre;" direction="ltr" dominant-baseline="alphabetic">github.com/gregoryv/neon</text></g><g stroke-linecap="round"><g transform="translate(47.91747871526991 180.12749206625108) rotate(0 56.762894417025166 17.03348710170809)" fill-rule="evenodd"><path d="M0 0 L0 34.07 L87.61 34.07 L113.53 17.45 L88.58 0 L0 0" stroke="none" stroke-width="0" fill="#5bc9e2" fill-rule="evenodd"></path><path d="M0 0 C0 11.95, 0 23.9, 0 34.07 M0 0 C0 11.17, 0 22.34, 0 34.07 M0 34.07 C18.81 34.07, 37.61 34.07, 87.61 34.07 M0 34.07 C27.31 34.07, 54.61 34.07, 87.61 34.07 M87.61 34.07 C93.31 30.41, 99.01 26.76, 113.53 17.45 M87.61 34.07 C96.95 28.08, 106.29 22.09, 113.53 17.45 M113.53 17.45 C107.2 13.03, 100.88 8.61, 88.58 0 M113.53 17.45 C106.88 12.8, 100.23 8.15, 88.58 0 M88.58 0 C58.06 0, 27.55 0, 0 0 M88.58 0 C65.12 0, 41.67 0, 0 0 M0 0 C0 0, 0 0, 0 0 M0 0 C0 0, 0 0, 0 0" stroke="#1e1e1e" stroke-width="1" fill="none"></path></g></g><mask></mask><g transform="translate(47.84089077799399 153.5134932426903) rotate(0 21.68181800842285 11.5)"><text x="0" y="18.400390625" font-family="Helvetica, Segoe UI Emoji" font-size="20px" fill="#1e1e1e" text-anchor="start" style="white-space: pre;" direction="ltr" dominant-baseline="alphabetic">main</text></g></svg>