<svg version="1.1" xmlns="http://www.w3.org/2000/svg" viewBox="0 0 291.526888784276 224.34970884658685" width="291.526888784276" height="224.34970884658685">
  <!-- svg-source:excalidraw -->
  
  <defs>
    <style class="style-fonts">
      @font-face {
        font-family: "Virgil";
        src: url("https://excalidraw.com/Virgil.woff2");
      }
      @font-face {
        font-family: "Cascadia";
        src: url("https://excalidraw.com/Cascadia.woff2");
      }
      @font-face {
        font-family: "Assistant";
        src: url("https://excalidraw.com/Assistant-Regular.woff2");
      }
    </style>
    
  </defs>
  <g stroke-linecap="round" transform="translate(22.471955190961694 71.95727599692702) rotate(0 120.9660604328401 61.62789739183478)"><path d="M0 0 C86.48 0, 172.96 0, 241.93 0 M0 0 C60.61 0, 121.22 0, 241.93 0 M241.93 0 C241.93 27.62, 241.93 55.23, 241.93 123.26 M241.93 0 C241.93 27.09, 241.93 54.18, 241.93 123.26 M241.93 123.26 C186.53 123.26, 131.13 123.26, 0 123.26 M241.93 123.26 C146.03 123.26, 50.14 123.26, 0 123.26 M0 123.26 C0 97.94, 0 72.63, 0 0 M0 123.26 C0 81.43, 0 39.6, 0 0" stroke="#1e1e1e" stroke-width="1" fill="none"></path></g><g stroke-linecap="round" transform="translate(22.471955190961694 45.185214482449396) rotate(0 55.27679185288673 13.376634260900403)"><path d="M0 0 C29.65 0, 59.29 0, 110.55 0 M0 0 C24.43 0, 48.86 0, 110.55 0 M110.55 0 C110.55 10.01, 110.55 20.02, 110.55 26.75 M110.55 0 C110.55 9.56, 110.55 19.11, 110.55 26.75 M110.55 26.75 C82.44 26.75, 54.33 26.75, 0 26.75 M110.55 26.75 C76.98 26.75, 43.4 26.75, 0 26.75 M0 26.75 C0 17.33, 0 7.9, 0 0 M0 26.75 C0 19.89, 0 13.02, 0 0" stroke="#1e1e1e" stroke-width="1" fill="none"></path></g><g transform="translate(63.203292064905554 51.077839248375085) rotate(0 14.545454978942871 7.484009494974771)"><text x="14.545454978942871" y="11.974669404238668" font-family="Helvetica, Segoe UI Emoji" font-size="13.015668686912639px" fill="#1e1e1e" text-anchor="middle" style="white-space: pre;" direction="ltr" dominant-baseline="alphabetic">neon</text></g><g stroke-linecap="round" transform="translate(10 10) rotate(0 135.763444392138 102.17485442329343)"><path d="M0 0 C85.72 0, 171.44 0, 271.53 0 M271.53 0 C271.53 67.48, 271.53 134.96, 271.53 204.35 M271.53 204.35 C169.24 204.35, 66.95 204.35, 0 204.35 M0 204.35 C0 138.65, 0 72.96, 0 0" stroke="#1e1e1e" stroke-width="1.5" fill="none" stroke-dasharray="8 9"></path></g><g stroke-linecap="round"><g transform="translate(172.04995467298693 92.22417749383715) rotate(0 33.380098202307636 8.443898779243625)" fill-rule="evenodd"><path d="M0 0 L0 16.89 L54.03 16.89 L66.76 8.42 L54.66 0 L0 0" stroke="none" stroke-width="0" fill="#5bc9e2" fill-rule="evenodd"></path><path d="M0 0 C0 4.91, 0 9.82, 0 16.89 M0 0 C0 6.04, 0 12.08, 0 16.89 M0 16.89 C18.11 16.89, 36.21 16.89, 54.03 16.89 M0 16.89 C21.24 16.89, 42.48 16.89, 54.03 16.89 M54.03 16.89 C57.82 14.37, 61.61 11.85, 66.76 8.42 M54.03 16.89 C56.68 15.12, 59.33 13.36, 66.76 8.42 M66.76 8.42 C62.57 5.5, 58.38 2.59, 54.66 0 M66.76 8.42 C62.39 5.38, 58.02 2.34, 54.66 0 M54.66 0 C35.61 0, 16.56 0, 0 0 M54.66 0 C33.05 0, 11.44 0, 0 0 M0 0 C0 0, 0 0, 0 0 M0 0 C0 0, 0 0, 0 0" stroke="#1e1e1e" stroke-width="1" fill="none"></path></g></g><mask></mask><g stroke-linecap="round"><g transform="translate(169.15875771249875 89.64475414046922) rotate(0 36.940351372110115 11.085111234931617)"><path d="M0 0 C0 4.44, 0 8.88, 0 22.17 M0 0 C0 6.83, 0 13.65, 0 22.17 M0 22.17 C21.39 22.17, 42.78 22.17, 57.01 22.17 M0 22.17 C19.31 22.17, 38.62 22.17, 57.01 22.17 M57.01 22.17 C60.51 19.93, 64.01 17.69, 73.88 11.36 M57.01 22.17 C62.91 18.39, 68.81 14.61, 73.88 11.36 M73.88 11.36 C67.75 7.07, 61.62 2.78, 57.65 0 M73.88 11.36 C69.17 8.06, 64.47 4.77, 57.65 0 M57.65 0 C42.15 0, 26.65 0, 0 0 M57.65 0 C40.64 0, 23.63 0, 0 0" stroke="#1e1e1e" stroke-width="1" fill="none"></path></g></g><mask></mask><g stroke-linecap="round"><g transform="translate(171.4747027173155 124.8095808761949) rotate(0 33.380098202307636 8.443898779243625)" fill-rule="evenodd"><path d="M0 0 L0 16.89 L54.03 16.89 L66.76 8.42 L54.66 0 L0 0" stroke="none" stroke-width="0" fill="#5bc9e2" fill-rule="evenodd"></path><path d="M0 0 C0 3.77, 0 7.54, 0 16.89 M0 0 C0 6.24, 0 12.49, 0 16.89 M0 16.89 C14.87 16.89, 29.74 16.89, 54.03 16.89 M0 16.89 C21.35 16.89, 42.7 16.89, 54.03 16.89 M54.03 16.89 C56.78 15.06, 59.53 13.23, 66.76 8.42 M54.03 16.89 C58.79 13.72, 63.55 10.55, 66.76 8.42 M66.76 8.42 C64.03 6.52, 61.3 4.62, 54.66 0 M66.76 8.42 C64.32 6.72, 61.87 5.02, 54.66 0 M54.66 0 C34.45 0, 14.24 0, 0 0 M54.66 0 C42.28 0, 29.89 0, 0 0 M0 0 C0 0, 0 0, 0 0 M0 0 C0 0, 0 0, 0 0" stroke="#1e1e1e" stroke-width="1" fill="none"></path></g></g><mask></mask><g stroke-linecap="round"><g transform="translate(168.5835057568272 122.23015752282708) rotate(0 36.940351372110115 11.085111234931617)"><path d="M0 0 C0 8.68, 0 17.35, 0 22.17 M0 0 C0 6.5, 0 13, 0 22.17 M0 22.17 C13.83 22.17, 27.65 22.17, 57.01 22.17 M0 22.17 C11.49 22.17, 22.99 22.17, 57.01 22.17 M57.01 22.17 C60.39 20, 63.78 17.83, 73.88 11.36 M57.01 22.17 C63.25 18.17, 69.49 14.18, 73.88 11.36 M73.88 11.36 C68.32 7.47, 62.76 3.58, 57.65 0 M73.88 11.36 C70.59 9.06, 67.3 6.76, 57.65 0 M57.65 0 C44.26 0, 30.87 0, 0 0 M57.65 0 C40.11 0, 22.58 0, 0 0" stroke="#1e1e1e" stroke-width="1" fill="none"></path></g></g><mask></mask><g stroke-linecap="round"><g transform="translate(171.65627903951713 159.21168996458744) rotate(0 33.380098202307636 8.443898779243625)" fill-rule="evenodd"><path d="M0 0 L0 16.89 L54.03 16.89 L66.76 8.42 L54.66 0 L0 0" stroke="none" stroke-width="0" fill="#5bc9e2" fill-rule="evenodd"></path><path d="M0 0 C0 5.85, 0 11.7, 0 16.89 M0 0 C0 5.8, 0 11.59, 0 16.89 M0 16.89 C11.09 16.89, 22.17 16.89, 54.03 16.89 M0 16.89 C12.91 16.89, 25.83 16.89, 54.03 16.89 M54.03 16.89 C58.2 14.11, 62.38 11.34, 66.76 8.42 M54.03 16.89 C56.95 14.95, 59.87 13, 66.76 8.42 M66.76 8.42 C62.82 5.68, 58.88 2.94, 54.66 0 M66.76 8.42 C64.03 6.52, 61.31 4.63, 54.66 0 M54.66 0 C40.87 0, 27.09 0, 0 0 M54.66 0 C36.4 0, 18.14 0, 0 0 M0 0 C0 0, 0 0, 0 0 M0 0 C0 0, 0 0, 0 0" stroke="#1e1e1e" stroke-width="1" fill="none"></path></g></g><mask></mask><g stroke-linecap="round"><g transform="translate(168.76508207902896 156.6322666112195) rotate(0 36.940351372110115 11.085111234931617)"><path d="M0 0 C0 8.54, 0 17.09, 0 22.17 M0 0 C0 5.73, 0 11.45, 0 22.17 M0 22.17 C21.25 22.17, 42.5 22.17, 57.01 22.17 M0 22.17 C16.38 22.17, 32.77 22.17, 57.01 22.17 M57.01 22.17 C62.81 18.46, 68.6 14.74, 73.88 11.36 M57.01 22.17 C60.92 19.67, 64.83 17.16, 73.88 11.36 M73.88 11.36 C69.47 8.27, 65.06 5.19, 57.65 0 M73.88 11.36 C68.96 7.92, 64.05 4.48, 57.65 0 M57.65 0 C36.82 0, 16 0, 0 0 M57.65 0 C42.23 0, 26.82 0, 0 0" stroke="#1e1e1e" stroke-width="1" fill="none"></path></g></g><mask></mask><g transform="translate(19.90006179980719 14.601598772681427) rotate(0 75.26408826163691 7.484009494974771)"><text x="0" y="11.974669404238668" font-family="Helvetica, Segoe UI Emoji" font-size="13.015668686912639px" fill="#1e1e1e" text-anchor="start" style="white-space: pre;" direction="ltr" dominant-baseline="alphabetic">github.com/gregoryv/neon</text></g><g stroke-linecap="round"><g transform="translate(34.67606702005071 120.07399015800434) rotate(0 36.940351372110115 11.085111234931617)" fill-rule="evenodd"><path d="M0 0 L0 22.17 L57.01 22.17 L73.88 11.36 L57.65 0 L0 0" stroke="none" stroke-width="0" fill="#5bc9e2" fill-rule="evenodd"></path><path d="M0 0 C0 7.78, 0 15.55, 0 22.17 M0 0 C0 7.27, 0 14.54, 0 22.17 M0 22.17 C12.24 22.17, 24.48 22.17, 57.01 22.17 M0 22.17 C17.77 22.17, 35.54 22.17, 57.01 22.17 M57.01 22.17 C60.72 19.79, 64.43 17.41, 73.88 11.36 M57.01 22.17 C63.09 18.27, 69.17 14.38, 73.88 11.36 M73.88 11.36 C69.77 8.48, 65.65 5.6, 57.65 0 M73.88 11.36 C69.55 8.33, 65.23 5.3, 57.65 0 M57.65 0 C37.79 0, 17.93 0, 0 0 M57.65 0 C42.38 0, 27.12 0, 0 0 M0 0 C0 0, 0 0, 0 0 M0 0 C0 0, 0 0, 0 0" stroke="#1e1e1e" stroke-width="1" fill="none"></path></g></g><mask></mask><g transform="translate(34.626224859200875 102.75404060193682) rotate(0 14.1101679863784 7.484009494974771)"><text x="0" y="11.974669404238668" font-family="Helvetica, Segoe UI Emoji" font-size="13.015668686912639px" fill="#1e1e1e" text-anchor="start" style="white-space: pre;" direction="ltr" dominant-baseline="alphabetic">main</text></g></svg>